<svg xmlns="http://www.w3.org/2000/svg" xmlns:xlink="http://www.w3.org/1999/xlink" width="88" height="88" viewBox="0 0 88 88">
  <defs>
    <clipPath id="clip-path">
      <rect id="Rectangle_2505" data-name="Rectangle 2505" width="88" height="88" rx="13" transform="translate(0 0)" fill="none"/>
    </clipPath>
  </defs>
  <g id="covid" transform="translate(-192.392 0.063)">
    <g id="Group_2448" data-name="Group 2448" transform="translate(192.392 -0.063)" clip-path="url(#clip-path)">
      <path id="Path_1619" data-name="Path 1619" d="M282.232,248.68c-1.131,4.24-1.959,6.586-1.959,6.586C251.447,256.645,230,244.992,230,244.992l3.219-8.885-1.518-3.964a2.309,2.309,0,0,1,.345-2.266c6.994-8.748,7.817-13.3,7.2-18.3-.1-.865-.257-1.757-.423-2.677-.4-2.161-.892-4.534-1.159-7.441-1.067-11.5,6.134-16.924,6.134-16.924l-1.582-11.028c.589-.414,1.2-.791,1.821-1.15,4.865-2.741,12-5.739,20-5.739a43.263,43.263,0,0,1,19.232,4.24,21.634,21.634,0,0,1,2.823,1.665,189.506,189.506,0,0,1-3.854,76.156" transform="translate(-217.616 -111.712)" fill="#e2786c"/>
      <path id="Path_1620" data-name="Path 1620" d="M276.57,54.886s-9.811,2.3-11.19-1.609,1.916-4.53,1.916-4.53-5.365.635-5.6-2.668,2.453-3.675,2.453-3.675-4.982-.011-5.289-3.537,1.993-4.6,4.062-4.829c0,0-5.442-.92-4.522-6.055s5.212-4.292,5.212-4.292-3.756-2.529-.843-7.511,7.971-2.069,8.738-.46c0,0-.868-7.511,6.234-8.355s5.264,3.373,5.264,3.373,4.658-3.6,7.847-1.073.966,4.675.966,4.675a7.541,7.541,0,0,1,6.055-.307c3.143,1.3,2.376,4.905,2.376,4.905a5.7,5.7,0,0,1,4.675,2.913,3.051,3.051,0,0,1-.92,4.522,3.592,3.592,0,0,1,2.223,2.989c.153,2.223-3.142,3.6-3.142,3.6s2.528,3.771-3.833,4.491-22.687,17.43-22.687,17.43" transform="translate(-236.599 -4.82)" fill="#231f02"/>
      <rect id="Rectangle_2504" data-name="Rectangle 2504" width="13.757" height="17.65" transform="translate(38.921 42.09)" fill="#ffcfc0"/>
      <path id="Path_1621" data-name="Path 1621" d="M305.886,45.831l1.493,28.478a30.123,30.123,0,0,0,6.16,5.761c8.4,5.662,14.989.716,18.6-7.7a17.751,17.751,0,0,0,1.013-3.186c2.087-9.786-3.7-20.886-3.7-20.886Z" transform="translate(-268.517 -30.695)" fill="#ffcfc0"/>
      <path id="Path_1622" data-name="Path 1622" d="M358.3,93.16s-2.4,5.661,5.6,8.256l-5,2.738" transform="translate(-303.447 -62.44)" fill="#ffcfc0"/>
      <path id="Path_1623" data-name="Path 1623" d="M336.441,79.956s-4.435-2.109-7.221.233" transform="translate(-284.168 -52.999)" fill="none" stroke="#172b4d" stroke-linecap="round" stroke-linejoin="round" stroke-width="2"/>
      <path id="Path_1624" data-name="Path 1624" d="M366.644,77.9a6.892,6.892,0,0,1,6.811.582" transform="translate(-309.269 -51.778)" fill="none" stroke="#172b4d" stroke-linecap="round" stroke-linejoin="round" stroke-width="2"/>
      <path id="Path_1625" data-name="Path 1625" d="M341.709,130.7a11.416,11.416,0,0,1-5.239-3" transform="translate(-289.031 -85.602)" fill="none" stroke="#ff8e77" stroke-linecap="round" stroke-linejoin="round" stroke-width="1"/>
      <path id="Path_1626" data-name="Path 1626" d="M373.641,96.522c-.011.725.322,1.318.745,1.325s.774-.576.785-1.3-.322-1.318-.745-1.325-.774.576-.785,1.3" transform="translate(-313.963 -63.823)" fill="#172b4d"/>
      <path id="Path_1627" data-name="Path 1627" d="M340.3,96.011c-.011.725.322,1.318.745,1.325s.774-.576.785-1.3-.322-1.318-.745-1.325-.774.576-.785,1.3" transform="translate(-291.602 -63.48)" fill="#172b4d"/>
      <path id="Path_1628" data-name="Path 1628" d="M326.8,122.68c8.4,5.662,14.989.716,18.6-7.7a17.755,17.755,0,0,0,1.013-3.186,40.822,40.822,0,0,0-20.337-1.954,28.406,28.406,0,0,0,.725,12.845" transform="translate(-281.781 -73.306)" fill="#67b6a8"/>
      <path id="Path_1629" data-name="Path 1629" d="M311.9,109.414s-8.717-5.046-10.371.145,10.227,11.461,10.227,11.461" transform="translate(-265.487 -71.867)" fill="#67b6a8"/>
      <path id="Path_1630" data-name="Path 1630" d="M311.9,109.414s-8.717-5.046-10.371.145,10.227,11.461,10.227,11.461" transform="translate(-265.487 -71.867)" fill="none" stroke="#172b4d" stroke-linecap="round" stroke-linejoin="round" stroke-width="1"/>
      <path id="Path_1631" data-name="Path 1631" d="M318.586,46.784l-1.15-2.836-24.987-2.836-5.218,13.281,10.116,12.163a14.852,14.852,0,0,0,.865-11.536c2.232.168,5.947-.318,7.32-5.016,0,0,6.308,2.3,6.232-4.905,0,0,7.741,8.278,6.822,1.686" transform="translate(-256.004 -27.53)" fill="#231f02"/>
      <path id="Path_1632" data-name="Path 1632" d="M302.061,105.088s-2.211-7.3-7.448-5.937-2.265,15.688,5.812,11.991Z" transform="translate(-259.2 -66.345)" fill="#ffcfc0"/>
      <path id="Path_1633" data-name="Path 1633" d="M303.209,111.006s-.207-4.84-3.068-5.661-2.828,2.612-2.828,2.612" transform="translate(-262.767 -70.528)" fill="none" stroke="#ff8e77" stroke-linecap="round" stroke-linejoin="round" stroke-width="0.75"/>
      <path id="Path_1634" data-name="Path 1634" d="M308.417,108.831c-2.251,2.422-.256,5.379-.256,5.379" transform="translate(-269.495 -72.951)" fill="none" stroke="#ff8e77" stroke-linecap="round" stroke-linejoin="round" stroke-width="0.75"/>
      <path id="Path_1635" data-name="Path 1635" d="M270.6,233.945a15.253,15.253,0,0,1-11.782,13.612l-4.838,1.122-3.826.883a3.773,3.773,0,0,1-.9.1A3.951,3.951,0,0,1,245.9,247.8l-7.818.681-4.829-11.717,20.354-4.718c2.98-15.406-1.039-41.619-1.039-41.619H222.156L210.567,208.9l-2.612,4.166,3.035-1.49,12.923-6.328,4.369,12.766-6.87,3.569H221.4a10.733,10.733,0,0,1-6.558,6.53l-11.4,4.029-1.26.442a10.708,10.708,0,0,1-13.171-14.836l17.595-35.668a22.693,22.693,0,0,1,7.349-8.572c.588-.414,1.2-.791,1.821-1.15,4.866-2.741,12-5.739,20-5.739a43.26,43.26,0,0,1,19.232,4.24,21.634,21.634,0,0,1,2.824,1.665,22.925,22.925,0,0,1,9.115,13.116c4.856,18.6,4.571,37,3.651,48.305" transform="translate(-189.365 -111.712)" fill="#e2786c"/>
      <path id="Path_1636" data-name="Path 1636" d="M254.206,245.4c-.4-2.161-.892-4.534-1.159-7.441-1.067-11.5,6.135-16.924,6.135-16.924" transform="translate(-233.004 -148.21)" fill="none" stroke="#172b4d" stroke-linecap="round" stroke-linejoin="round" stroke-width="0.75"/>
      <path id="Path_1637" data-name="Path 1637" d="M325.672,285.248l20.354-4.718c2.98-15.406-1.039-41.619-1.039-41.619" transform="translate(-281.788 -160.201)" fill="none" stroke="#172b4d" stroke-linecap="round" stroke-linejoin="round" stroke-width="0.75"/>
      <path id="Path_1638" data-name="Path 1638" d="M304.683,164.768l-.559-2.654a1.468,1.468,0,0,1,1.39-1.77l14.447-.433a1.351,1.351,0,0,1,1.377,1.545l-.484,3.312Z" transform="translate(-267.313 -107.212)" fill="#e2786c"/>
    </g>
  </g>
</svg>
