<svg id="drafts" xmlns="http://www.w3.org/2000/svg" xmlns:xlink="http://www.w3.org/1999/xlink" width="76.076" height="81.979" viewBox="0 0 76.076 81.979">
  <defs>
    <clipPath id="clip-path">
      <rect id="Rectangle_2557" data-name="Rectangle 2557" width="76.076" height="81.979" rx="7" fill="none"/>
    </clipPath>
    <clipPath id="clip-path-2">
      <rect id="Rectangle_2538" data-name="Rectangle 2538" width="76.076" height="81.979" fill="none"/>
    </clipPath>
    <clipPath id="clip-path-3">
      <rect id="Rectangle_2532" data-name="Rectangle 2532" width="29.592" height="29.592" fill="none"/>
    </clipPath>
    <clipPath id="clip-path-4">
      <rect id="Rectangle_2534" data-name="Rectangle 2534" width="7.476" height="29.592" fill="none"/>
    </clipPath>
    <clipPath id="clip-path-5">
      <rect id="Rectangle_2535" data-name="Rectangle 2535" width="29.592" height="8.646" fill="none"/>
    </clipPath>
    <clipPath id="clip-path-8">
      <rect id="Rectangle_2541" data-name="Rectangle 2541" width="15.248" height="5.403" fill="none"/>
    </clipPath>
    <clipPath id="clip-path-9">
      <rect id="Rectangle_2542" data-name="Rectangle 2542" width="11.938" height="2.985" fill="none"/>
    </clipPath>
    <clipPath id="clip-path-10">
      <rect id="Rectangle_2543" data-name="Rectangle 2543" width="32.933" height="24" fill="none"/>
    </clipPath>
    <clipPath id="clip-path-11">
      <rect id="Rectangle_2545" data-name="Rectangle 2545" width="28.249" height="20.629" fill="none"/>
    </clipPath>
    <clipPath id="clip-path-12">
      <rect id="Rectangle_2547" data-name="Rectangle 2547" width="14.671" height="18.771" fill="none"/>
    </clipPath>
    <clipPath id="clip-path-13">
      <rect id="Rectangle_2549" data-name="Rectangle 2549" width="28.238" height="20.522" fill="none"/>
    </clipPath>
    <clipPath id="clip-path-14">
      <rect id="Rectangle_2550" data-name="Rectangle 2550" width="26.259" height="18.956" fill="none"/>
    </clipPath>
    <clipPath id="clip-path-15">
      <rect id="Rectangle_2551" data-name="Rectangle 2551" width="26.259" height="4.385" fill="none"/>
    </clipPath>
    <clipPath id="clip-path-16">
      <rect id="Rectangle_2552" data-name="Rectangle 2552" width="6.469" height="15.63" fill="none"/>
    </clipPath>
    <clipPath id="clip-path-17">
      <rect id="Rectangle_2553" data-name="Rectangle 2553" width="2.702" height="29.152" fill="none"/>
    </clipPath>
    <clipPath id="clip-path-18">
      <rect id="Rectangle_2554" data-name="Rectangle 2554" width="15.407" height="5.322" fill="none"/>
    </clipPath>
    <clipPath id="clip-path-19">
      <rect id="Rectangle_2555" data-name="Rectangle 2555" width="12.073" height="2.94" fill="none"/>
    </clipPath>
  </defs>
  <g id="Group_2561" data-name="Group 2561" clip-path="url(#clip-path)">
    <rect id="Rectangle_2529" data-name="Rectangle 2529" width="53.844" height="81.979" rx="10" transform="translate(0)" fill="#d3d3d3"/>
    <path id="Path_1800" data-name="Path 1800" d="M0,0H20.911V81.979H0Z" transform="translate(0)" fill="#afafaf"/>
    <g id="Group_2513" data-name="Group 2513">
      <g id="Group_2512" data-name="Group 2512" clip-path="url(#clip-path-2)">
        <g id="Group_2502" data-name="Group 2502" transform="translate(22.675 43.864)" opacity="0.2" style="mix-blend-mode: normal;isolation: isolate">
          <g id="Group_2501" data-name="Group 2501">
            <g id="Group_2500" data-name="Group 2500" clip-path="url(#clip-path-3)">
              <rect id="Rectangle_2531" data-name="Rectangle 2531" width="29.592" height="29.592" transform="translate(0 0)"/>
            </g>
          </g>
        </g>
        <g id="Group_2505" data-name="Group 2505" transform="translate(22.675 43.864)" opacity="0.2" style="mix-blend-mode: normal;isolation: isolate">
          <g id="Group_2504" data-name="Group 2504" transform="translate(0)">
            <g id="Group_2503" data-name="Group 2503" clip-path="url(#clip-path-4)">
              <rect id="Rectangle_2533" data-name="Rectangle 2533" width="7.476" height="29.592" transform="translate(0 0)"/>
            </g>
          </g>
        </g>
        <g id="Group_2508" data-name="Group 2508" transform="translate(22.675 43.864)" opacity="0.2" style="mix-blend-mode: normal;isolation: isolate">
          <g id="Group_2507" data-name="Group 2507">
            <g id="Group_2506" data-name="Group 2506" clip-path="url(#clip-path-5)">
              <path id="Path_1771" data-name="Path 1771" d="M114.8,156.986l-8.646,8.646H85.211v-8.646Z" transform="translate(-85.211 -156.985)"/>
            </g>
          </g>
        </g>
        <g id="Group_2511" data-name="Group 2511" transform="translate(22.675 11.765)" opacity="0.2" style="mix-blend-mode: normal;isolation: isolate">
          <g id="Group_2510" data-name="Group 2510">
            <g id="Group_2509" data-name="Group 2509" clip-path="url(#clip-path-3)">
              <rect id="Rectangle_2536" data-name="Rectangle 2536" width="29.592" height="29.592" transform="translate(0 0)"/>
            </g>
          </g>
        </g>
      </g>
    </g>
    <path id="Path_1801" data-name="Path 1801" d="M0,0H28.749V29.592H0Z" transform="translate(23.518 11.765)" fill="#f08969"/>
    <rect id="Rectangle_2540" data-name="Rectangle 2540" width="10.28" height="2.653" transform="translate(33.946 15.305)" fill="#fff"/>
    <g id="Group_2560" data-name="Group 2560">
      <g id="Group_2559" data-name="Group 2559" clip-path="url(#clip-path-2)">
        <g id="Group_2516" data-name="Group 2516" transform="translate(29.377 24.881)" opacity="0.1" style="mix-blend-mode: normal;isolation: isolate">
          <g id="Group_2515" data-name="Group 2515">
            <g id="Group_2514" data-name="Group 2514" clip-path="url(#clip-path-8)">
              <path id="Path_1772" data-name="Path 1772" d="M112.652,92.634l2.722-3.589h.541v2.437h.718l-.923,1.152a.073.073,0,0,0,.057.119h7.751a.442.442,0,0,0,.352-.175l.832-1.1h3.107l-2.244,2.8a.442.442,0,0,1-.345.166H113a.442.442,0,0,1-.442-.442V92.9a.442.442,0,0,1,.09-.267" transform="translate(-112.562 -89.045)"/>
            </g>
          </g>
        </g>
        <path id="Path_1773" data-name="Path 1773" d="M102.555,91.387h14.554a.433.433,0,0,0,.433-.433V88.836a.433.433,0,0,0-.433-.433H102.555a.433.433,0,0,0-.433.433v2.119a.433.433,0,0,0,.433.433" transform="translate(-70 -63.702)" fill="#777"/>
        <g id="Group_2519" data-name="Group 2519" transform="translate(35.604 24.701)" opacity="0.2">
          <g id="Group_2518" data-name="Group 2518" transform="translate(0)">
            <g id="Group_2517" data-name="Group 2517" clip-path="url(#clip-path-9)">
              <path id="Path_1774" data-name="Path 1774" d="M102.554,91.387h11.072a.433.433,0,0,0,.433-.433V88.836a.433.433,0,0,0-.433-.433H102.554a.433.433,0,0,0-.433.433v2.119a.433.433,0,0,0,.433.433" transform="translate(-102.121 -88.403)" fill="#fff"/>
            </g>
          </g>
        </g>
        <path id="Path_1775" data-name="Path 1775" d="M124.883,57.742a2.429,2.429,0,0,1-1.338-1.086,1.564,1.564,0,0,1,.672,1.266c-.5.079-.721-.681-1.205-.814l.166.736a.86.86,0,0,1-.694-.238,1.437,1.437,0,0,1-1.029-.4.383.383,0,0,1,.471-.162l-1.579.148a.269.269,0,0,1,.345.3.281.281,0,0,1-.542,0,.456.456,0,0,0-.045-.144c-.055-.077-.169-.07-.263-.055a11.2,11.2,0,0,1-2.872.073" transform="translate(-81.489 -40.825)" fill="none" stroke="#263238" stroke-linecap="round" stroke-linejoin="round" stroke-width="0.5"/>
        <g id="Group_2522" data-name="Group 2522" transform="translate(20.911 57.979)" opacity="0.1" style="mix-blend-mode: normal;isolation: isolate">
          <g id="Group_2521" data-name="Group 2521">
            <g id="Group_2520" data-name="Group 2520" clip-path="url(#clip-path-10)">
              <path id="Path_1776" data-name="Path 1776" d="M81.328,207.5l-1.764,2.192V231.5h26.417l6.517-7.183Z" transform="translate(-79.565 -207.501)"/>
            </g>
          </g>
        </g>
        <path id="Path_1777" data-name="Path 1777" d="M80.782,164.925H96.62l.161-1.022a.467.467,0,0,1,.473-.4h4.371a.614.614,0,0,1,.56.4l.384,1.022h3.557a1.4,1.4,0,0,1,1.359,1.231L109.651,186a1.08,1.08,0,0,1-1.09,1.231H83.216A1.4,1.4,0,0,1,81.857,186l-2.165-19.84a1.08,1.08,0,0,1,1.09-1.231" transform="translate(-55.847 -117.819)" fill="#478076"/>
        <path id="Path_1779" data-name="Path 1779" d="M108.109,192.485l-.848-20.629H79.86l1.365,20.175Z" transform="translate(-54.347 -123.837)" fill="#407bff"/>
        <g id="Group_2528" data-name="Group 2528" transform="translate(25.513 48.019)" opacity="0.7">
          <g id="Group_2527" data-name="Group 2527">
            <g id="Group_2526" data-name="Group 2526" clip-path="url(#clip-path-11)">
              <path id="Path_1780" data-name="Path 1780" d="M108.109,192.485l-.848-20.629H79.86l1.365,20.175Z" transform="translate(-79.86 -171.856)" fill="#fff"/>
            </g>
          </g>
        </g>
        <path id="Path_1781" data-name="Path 1781" d="M79.387,195.042h25.344a1.177,1.177,0,0,0,1.215-1.148l-.151-18.5a1.2,1.2,0,0,0-1.234-1.148H79.217A1.177,1.177,0,0,0,78,175.39l.151,18.5a1.2,1.2,0,0,0,1.234,1.148" transform="translate(-51.666 -125.556)" fill="#67b6a8"/>
        <g id="Group_2534" data-name="Group 2534" transform="translate(37.378 48.686)" opacity="0.15" style="mix-blend-mode: normal;isolation: isolate">
          <g id="Group_2533" data-name="Group 2533" transform="translate(0)">
            <g id="Group_2532" data-name="Group 2532" clip-path="url(#clip-path-12)">
              <path id="Path_1783" data-name="Path 1783" d="M86.5,174.242l-.515,18.771H99.856l.8-18.771Z" transform="translate(-85.989 -174.242)"/>
            </g>
          </g>
        </g>
        <path id="Path_1784" data-name="Path 1784" d="M28.14,162.694H43.978l.273-1.017a.534.534,0,0,1,.516-.4h4.371a.534.534,0,0,1,.516.4l.273,1.017h3.557a1.225,1.225,0,0,1,1.225,1.225v19.738a1.225,1.225,0,0,1-1.225,1.225H28.14a1.225,1.225,0,0,1-1.225-1.225V163.919a1.225,1.225,0,0,1,1.225-1.225" transform="translate(13.847 -116.217)" fill="#3e6e65"/>
        <path id="Path_1786" data-name="Path 1786" d="M49.059,190.111l1.4-20.522h-27.4l-.837,20.071Z" transform="translate(19.403 -122.203)" fill="#407bff"/>
        <g id="Group_2540" data-name="Group 2540" transform="translate(41.628 47.386)" opacity="0.8">
          <g id="Group_2539" data-name="Group 2539">
            <g id="Group_2538" data-name="Group 2538" clip-path="url(#clip-path-13)">
              <path id="Path_1787" data-name="Path 1787" d="M49.059,190.111l1.4-20.522h-27.4l-.837,20.071Z" transform="translate(-22.225 -169.589)" fill="#fff"/>
            </g>
          </g>
        </g>
        <path id="Path_1788" data-name="Path 1788" d="M19.676,192.654H45.021a1.342,1.342,0,0,0,1.341-1.142L48.23,173.1a1.052,1.052,0,0,0-1.109-1.142H21.777a1.343,1.343,0,0,0-1.341,1.142l-1.868,18.408a1.052,1.052,0,0,0,1.109,1.142" transform="translate(22.654 -123.913)" fill="#67b6a8"/>
        <path id="Path_1789" data-name="Path 1789" d="M123.4,211.48,97.139,207.5v14.3l24.337,4.66Z" transform="translate(-74.464 -149.522)" fill="#a8abaf"/>
        <g id="Group_2543" data-name="Group 2543" transform="translate(22.675 57.979)" opacity="0.5">
          <g id="Group_2542" data-name="Group 2542">
            <g id="Group_2541" data-name="Group 2541" clip-path="url(#clip-path-14)">
              <path id="Path_1790" data-name="Path 1790" d="M123.4,211.48,97.139,207.5v14.3l24.337,4.66Z" transform="translate(-97.138 -207.501)" fill="#a8abaf"/>
            </g>
          </g>
        </g>
        <g id="Group_2546" data-name="Group 2546" transform="translate(22.675 57.979)" opacity="0.7">
          <g id="Group_2545" data-name="Group 2545">
            <g id="Group_2544" data-name="Group 2544" clip-path="url(#clip-path-15)">
              <path id="Path_1791" data-name="Path 1791" d="M123.4,211.48l-.37.405L97.139,207.9v-.4Z" transform="translate(-97.138 -207.501)" fill="#a8abaf"/>
            </g>
          </g>
        </g>
        <g id="Group_2549" data-name="Group 2549" transform="translate(42.465 61.306)" opacity="0.2" style="mix-blend-mode: normal;isolation: isolate">
          <g id="Group_2548" data-name="Group 2548" transform="translate(0)">
            <g id="Group_2547" data-name="Group 2547" clip-path="url(#clip-path-16)">
              <path id="Path_1792" data-name="Path 1792" d="M99.3,219.406l-1.185.27-.975,14.489,4.546.87,1.923-14.977Z" transform="translate(-97.139 -219.406)" fill="#a8abaf"/>
            </g>
          </g>
        </g>
        <path id="Path_1793" data-name="Path 1793" d="M0,206.9H29.592l1.86-29.15H1.859Z" transform="translate(44.625 -128.086)" fill="#6d6d6d"/>
        <g id="Group_2552" data-name="Group 2552" transform="translate(44.626 49.666)" opacity="0.2" style="mix-blend-mode: normal;isolation: isolate">
          <g id="Group_2551" data-name="Group 2551" transform="translate(0)">
            <g id="Group_2550" data-name="Group 2550" clip-path="url(#clip-path-17)">
              <path id="Path_1794" data-name="Path 1794" d="M102.888,206.9h.841l1.861-29.152h-.844Z" transform="translate(-102.888 -177.749)"/>
            </g>
          </g>
        </g>
        <path id="Path_1795" data-name="Path 1795" d="M29.574,192.846h10.28l.167-2.613H29.741Z" transform="translate(27.792 -137.078)" fill="#fff"/>
        <g id="Group_2555" data-name="Group 2555" transform="translate(52.049 62.586)" opacity="0.1" style="mix-blend-mode: normal;isolation: isolate">
          <g id="Group_2554" data-name="Group 2554" transform="translate(0)">
            <g id="Group_2553" data-name="Group 2553" clip-path="url(#clip-path-18)">
              <path id="Path_1796" data-name="Path 1796" d="M31.025,227.525l2.948-3.535h.541l-.153,2.4h.718l-1,1.135a.069.069,0,0,0,.05.118h7.751a.477.477,0,0,0,.363-.172l.9-1.08h3.107l-2.419,2.759a.477.477,0,0,1-.356.163H31.263a.407.407,0,0,1-.414-.436l.069-1.087a.459.459,0,0,1,.107-.263" transform="translate(-30.848 -223.99)"/>
            </g>
          </g>
        </g>
        <path id="Path_1797" data-name="Path 1797" d="M20.32,226.3H34.875a.465.465,0,0,0,.46-.426l.133-2.087a.4.4,0,0,0-.406-.427H20.508a.465.465,0,0,0-.46.427l-.133,2.087a.4.4,0,0,0,.406.426" transform="translate(35.043 -160.947)" fill="#777"/>
        <g id="Group_2558" data-name="Group 2558" transform="translate(58.439 62.41)" opacity="0.2">
          <g id="Group_2557" data-name="Group 2557">
            <g id="Group_2556" data-name="Group 2556" clip-path="url(#clip-path-19)">
              <path id="Path_1798" data-name="Path 1798" d="M20.32,226.3H31.392a.465.465,0,0,0,.46-.426l.133-2.087a.4.4,0,0,0-.406-.427H20.507a.465.465,0,0,0-.46.427l-.133,2.087a.4.4,0,0,0,.406.426" transform="translate(-19.913 -223.356)" fill="#fff"/>
            </g>
          </g>
        </g>
        <path id="Path_1799" data-name="Path 1799" d="M40.878,193.449a.986.986,0,0,1-1.082-.326c-.01.22.065.5.051.756a2.331,2.331,0,0,1-.475-.684c.206.456-.336.567-.656.408a.638.638,0,0,1-.372-.543c0-.075.031-.163.1-.178s.128.047.166.106c.128.2.287.746-.034.815-.293.063-.677-.461-.762-.678a.47.47,0,0,1,.26.465c-.322-.016-.767.064-.788-.373.028.576-.52.381-.72,0,.065.2-.239.308-.453.3l-2.853-.064" transform="translate(25.903 -138.986)" fill="none" stroke="#263238" stroke-linecap="round" stroke-linejoin="round" stroke-width="0.5"/>
      </g>
    </g>
  </g>
</svg>
