<svg xmlns="http://www.w3.org/2000/svg" xmlns:xlink="http://www.w3.org/1999/xlink" width="88" height="88" viewBox="0 0 88 88">
  <defs>
    <clipPath id="clip-path">
      <rect id="Rectangle_2527" data-name="Rectangle 2527" width="88" height="88" transform="translate(223 411.693)" fill="#fff" stroke="#707070" stroke-width="1"/>
    </clipPath>
    <clipPath id="clip-path-2">
      <path id="Rectangle_2525" data-name="Rectangle 2525" d="M30.011,0H57.985A30.01,30.01,0,0,1,88,30.01V57.985A30.01,30.01,0,0,1,57.985,88H30.011A30.011,30.011,0,0,1,0,57.984V30.011A30.011,30.011,0,0,1,30.011,0Z" fill="none"/>
    </clipPath>
    <clipPath id="clip-path-3">
      <path id="Rectangle_2526" data-name="Rectangle 2526" d="M30.01,0H57.983A30.011,30.011,0,0,1,87.994,30.011V57.984a30.01,30.01,0,0,1-30.01,30.01H30.01A30.01,30.01,0,0,1,0,57.984V30.01A30.01,30.01,0,0,1,30.01,0Z" fill="none"/>
    </clipPath>
  </defs>
  <g id="life_story-" data-name="life story-" transform="translate(-223 -411.693)" clip-path="url(#clip-path)">
    <g id="Group_2498" data-name="Group 2498" transform="translate(207.122 415.763)">
      <g id="Group_2497" data-name="Group 2497" clip-path="url(#clip-path-2)">
        <path id="Path_1692" data-name="Path 1692" d="M15.526,124.223s.741,104.638,2.681,106.586,18.564.659,18.564.659l4.321-92.924,3.074.032c.176.532.4,92.545.929,92.931s20.171.461,20.879-.039S70.606,125.324,69.188,125s-53.663-.773-53.663-.773" transform="translate(0.025 0.202)" fill="#75434c"/>
        <path id="Path_1693" data-name="Path 1693" d="M16.826,126.921l-.841.021c.006.263.675,26.594,1.362,52.6.4,15.276.734,27.455.983,36.2.147,5.19.267,9.215.356,11.951.047,1.445.087,2.584.118,3.363v.1a5.625,5.625,0,0,0,.852.252c-.338-7.653-1.973-70.569-2.835-104.493" transform="translate(0.026 0.207)" fill="#75434c"/>
        <path id="Path_1694" data-name="Path 1694" d="M67.926,126.944l-.841-.026L63.879,231.679c.313-.015.595-.031.844-.048Z" transform="translate(0.104 0.207)" fill="#75434c"/>
        <path id="Path_1695" data-name="Path 1695" d="M14.634,119.989s-.373,7.347.621,7.821c3.811,1.818,51.484,1.9,54.388.338.88-.473,1.73-5.569,1.532-7.725-.028-.3-56.542-.434-56.542-.434" transform="translate(0.024 0.195)" fill="#cc7a65"/>
        <path id="Path_1696" data-name="Path 1696" d="M39.646,138.615c-3.205,0-4.863-.009-4.951-.026l.082-.414.042-.419c.442.031,11.719.009,16.021,0v.842q-7.189.018-11.2.018" transform="translate(0.056 0.224)" fill="#75434c"/>
        <path id="Path_1697" data-name="Path 1697" d="M59.372,92l-1.5-47.83c-8.432-2.924-16.676-2.621-26.474.365L31.028,92Z" transform="translate(0.051 0.069)" fill="#dbcac2"/>
        <path id="Path_1698" data-name="Path 1698" d="M3.705,69.725s2.65-13.731,13.057-19.344c4.154-2.241,18.057-7.255,18.63-7.079.14.044-.3.217-.914.513-1.1.532-2.764,1.341-2.713,1.647,1.891,11.235,6.9,40.526,11.983,40.5,4.277-.021,11.479-29.805,13.778-40.27.09-.4-1.524-1.582-2.547-2.244-.548-.356-1.195-.374-1.039-.424C55.062,42.667,72.4,49.087,77.4,53.649c3.888,3.548,6.729,17.762,6.729,17.762l-12.556,1.72s1.971,48.4.145,49.263-55.057.854-57.569-1.056,1.863-48.9,1.863-48.9c-1.14-.31-12.3-2.713-12.3-2.713" transform="translate(0.006 0.07)" fill="#cc7a65"/>
        <path id="Path_1699" data-name="Path 1699" d="M3.705,69.725s2.65-13.731,13.057-19.344c4.154-2.241,18.057-7.255,18.63-7.079.14.044-.3.217-.914.513-1.1.532-2.764,1.341-2.713,1.647,1.891,11.235,6.9,40.526,11.983,40.5,4.277-.021,11.479-29.805,13.778-40.27.09-.4-1.524-1.582-2.547-2.244-.548-.356-1.195-.374-1.039-.424C55.062,42.667,72.4,49.087,77.4,53.649c3.888,3.548,6.729,17.762,6.729,17.762l-12.556,1.72s1.971,48.4.145,49.263-55.057.854-57.569-1.056,1.863-48.9,1.863-48.9c-1.14-.31-12.3-2.713-12.3-2.713" transform="translate(0.006 0.07)" fill="#f08969"/>
        <path id="Path_1700" data-name="Path 1700" d="M35.837,39.566l-.176,6s2.391,2.566,9.734,2.363,8.141-1.959,8.141-1.959v-6.8Z" transform="translate(0.058 0.064)" fill="#fc9c76"/>
        <path id="Path_1701" data-name="Path 1701" d="M31.752,16.467s-.706,10.823-.674,18.63c.014,3.651,3.868,7.954,13.14,8.144,8.7.178,13.656-3.545,13.838-7.2.372-7.466.74-18.317-.317-20.69C56.165,11.816,45.388,9.41,45.388,9.41s-13.395,2.741-13.636,7.057" transform="translate(0.051 0.015)" fill="#fc9c76"/>
        <path id="Path_1702" data-name="Path 1702" d="M35.754,42.588s-1.836,3.293-1.647,5.345,10.032,4.218,10.261,4.181,10.263-3.291,10.8-4.763-1.624-4.93-1.624-4.93a13.167,13.167,0,0,1-8.623,3.725,13.983,13.983,0,0,1-9.163-3.558" transform="translate(0.056 0.069)" fill="#dbcac2"/>
        <path id="Path_1703" data-name="Path 1703" d="M51.481,31c-.43-.875-3.853-.321-4.95-1.4-1.474.73-3.766.984-5.1.1-.938.827-3.776.091-4.525,1.363-.534.907,2.867,2.988,7.29,2.988,4.56,0,7.8-1.992,7.284-3.055" transform="translate(0.06 0.048)" fill="#f4f0ed"/>
        <path id="Path_1704" data-name="Path 1704" d="M49.13,31.008a18.152,18.152,0,0,1-2.778-1.326,5.82,5.82,0,0,1-4.721.135,30,30,0,0,0-4.747,1.63,1.773,1.773,0,0,0,.6.723q1.376-.476,2.749-.958a11.013,11.013,0,0,0-1.582,1.666c.228.11.476.215.739.317a17.21,17.21,0,0,1,1.965-1.737,15.821,15.821,0,0,1,1.686-1.03A9.43,9.43,0,0,0,41.1,33.708q.394.089.811.156a13.859,13.859,0,0,1,2.112-3.316,11.84,11.84,0,0,0-.646,3.479q.4.024.817.024h.068a36.8,36.8,0,0,1,.7-3.622,16.387,16.387,0,0,0,.768,3.546c.271-.028.538-.062.8-.1-.374-1.2-.492-2.454-.815-3.658.761,1.12,1.543,2.231,2.329,3.334.3-.084.592-.176.862-.274-.391-.652-.812-1.293-1.264-1.911A16.263,16.263,0,0,0,50.654,32.4a2.714,2.714,0,0,0,.733-.713c-.756-.212-1.515-.412-2.256-.675" transform="translate(0.06 0.048)" fill="#e2dedc"/>
        <path id="Path_1705" data-name="Path 1705" d="M43.967,86.02c-.306-11.543.77-39.914.767-39.914h-.84S42.873,74.319,43.177,86Z" transform="translate(0.07 0.075)" fill="#c6b3ab"/>
        <path id="Path_1706" data-name="Path 1706" d="M38.212,25.438c-.6-.317-1.3-.259-1.894-.586-.439-.243-.976.478-.536.885a2.291,2.291,0,0,0,1.022.535A4.75,4.75,0,0,0,38,26.511c.45,0,.654-.842.216-1.073" transform="translate(0.058 0.04)" fill="#ffae92"/>
        <path id="Path_1707" data-name="Path 1707" d="M52.8,24.97a5.388,5.388,0,0,0-2.259.656c-.564.246-.314,1.274.27,1.092.355-.11.713-.207,1.072-.3a5.719,5.719,0,0,0,1.07-.287c.513-.245.4-1.126-.153-1.161" transform="translate(0.082 0.041)" fill="#ffae92"/>
        <path id="Path_1708" data-name="Path 1708" d="M44.454,38.176a9.38,9.38,0,0,0-1.536.074c-.621.066-.6,1.039.025.98.513-.048,1.026-.076,1.534-.151a.452.452,0,0,0-.023-.9" transform="translate(0.069 0.062)" fill="#ffae92"/>
        <path id="Path_1709" data-name="Path 1709" d="M32.885,26.743a3.357,3.357,0,0,1-3.08,3.577,3.357,3.357,0,0,1-3.079-3.577,3.357,3.357,0,0,1,3.079-3.577,3.357,3.357,0,0,1,3.08,3.577" transform="translate(0.043 0.038)" fill="#fc9c76"/>
        <path id="Path_1710" data-name="Path 1710" d="M63.355,26.743a3.114,3.114,0,1,1-6.159,0,3.114,3.114,0,1,1,6.159,0" transform="translate(0.093 0.038)" fill="#fc9c76"/>
        <path id="Path_1711" data-name="Path 1711" d="M29.895,29.01a33.1,33.1,0,0,0-.508-4.5l.827-.155A33.116,33.116,0,0,1,30.737,29Z" transform="translate(0.048 0.04)" fill="#ed675c"/>
        <rect id="Rectangle_2522" data-name="Rectangle 2522" width="0.842" height="2.108" transform="matrix(0.45, -0.893, 0.893, 0.45, 28.292, 26.433)" fill="#ed675c"/>
        <path id="Path_1712" data-name="Path 1712" d="M59.825,29.01,58.983,29a33.265,33.265,0,0,1,.523-4.641l.827.155a33.1,33.1,0,0,0-.508,4.5" transform="translate(0.096 0.04)" fill="#ed675c"/>
        <rect id="Rectangle_2523" data-name="Rectangle 2523" width="2.108" height="0.842" transform="matrix(0.893, -0.449, 0.449, 0.893, 59.311, 26.628)" fill="#ed675c"/>
        <path id="Path_1713" data-name="Path 1713" d="M14.571,122.192c.691.089,14.193,1.81,28.794,2.059q2.034.035,4.019.034c11.347,0,21.083-.778,23.677-1,.035-.289.064-.575.086-.852-2.573.227-14.542,1.208-27.767.982-14.865-.254-28.591-2.038-28.728-2.056l-.078.589v.249" transform="translate(0.024 0.198)" fill="#ba6d5d"/>
        <path id="Path_1714" data-name="Path 1714" d="M39.7,19.549a11.663,11.663,0,0,0-3.927.433.664.664,0,0,0,.208,1.293c1.252-.088,2.5-.277,3.753-.386a.671.671,0,0,0-.034-1.34" transform="translate(0.058 0.032)" fill="#f4f0ed"/>
        <path id="Path_1715" data-name="Path 1715" d="M53.271,19.923a16.311,16.311,0,0,0-4.623-.421.66.66,0,0,0,.034,1.319c1.435.055,2.845.2,4.268.393.828.112,1.171-1.083.321-1.291" transform="translate(0.078 0.032)" fill="#f4f0ed"/>
        <path id="Path_1716" data-name="Path 1716" d="M30.942,23.447s.216,3.923.668,4.021a1.2,1.2,0,0,0,.839-.161s.743-11.368.872-11.756,4.149-4.134,11.86-4.456,11.36,4.521,11.426,4.78-.033,12.079.355,12.3a2.136,2.136,0,0,0,1.228,0l.742-4.607-.193-9.025s-2.557-7-13.308-6.811-14.474,5.878-14.355,6.4-.134,9.305-.134,9.305" transform="translate(0.05 0.013)" fill="#f4f0ed"/>
        <path id="Path_1717" data-name="Path 1717" d="M30.946,23.454a2.7,2.7,0,0,1-2.195-1.91c-.515-1.731,1.1-3.275,1.1-3.275s-2.567-8.809,7.011-13.4S50.927,6.009,50.927,6.009a4.908,4.908,0,0,1,5.335-.047c2.8,1.779,2.176,4.118,2.176,4.118s2.5.842,3.252,4.446a5.5,5.5,0,0,1-1.978,5.521,2.336,2.336,0,0,1,.611,1.778c-.177.937-1.623,1.911-1.623,1.911L57.057,21.3a17.207,17.207,0,0,1-2.247-4.158,18.307,18.307,0,0,1-.8-2.855s-1.268,1.591-6.787,1.545-6.711-.937-6.711-.937-2.648,4.072-7.421,4.072Z" transform="translate(0.047 0.005)" fill="#f4f0ed"/>
        <path id="Path_1718" data-name="Path 1718" d="M38.211,24.437a1.058,1.058,0,0,0,.595-.944,1.08,1.08,0,0,0-2.16,0,1.041,1.041,0,0,0,.247.668c.44.089.877.186,1.317.275" transform="translate(0.06 0.036)" fill="#49263e"/>
        <path id="Path_1719" data-name="Path 1719" d="M50.473,24.508c.536-.089,1.075-.165,1.614-.238a1.048,1.048,0,0,0,.168-.565,1.08,1.08,0,0,0-2.16,0,1.047,1.047,0,0,0,.378.8" transform="translate(0.082 0.037)" fill="#49263e"/>
        <path id="Path_1720" data-name="Path 1720" d="M3.71,69.685C3.354,70.386-.156,95,.6,100.805S26.47,125.054,28.52,125.286s14.1-8.113,13.445-10.016S18.346,91.952,17.6,90.183s2.846-19.852,1.3-21.623S3.71,69.685,3.71,69.685" transform="translate(0.001 0.111)" fill="#f08969"/>
        <path id="Path_1721" data-name="Path 1721" d="M83.786,69.9c.357.7,3.362,25.1,2.609,30.907s-25.29,24.549-27.344,24.78-14.681-8.407-14.023-10.317S68.646,91.956,69.391,90.186s-2.847-19.851-1.3-21.623S83.79,69.9,83.79,69.9" transform="translate(0.073 0.111)" fill="#67b6a8"/>
        <path id="Path_1722" data-name="Path 1722" d="M53.536,41.474A27.539,27.539,0,0,1,44.4,43.13a24.954,24.954,0,0,1-8.614-1.723l-.026.9A25.483,25.483,0,0,0,44.4,43.972h.163a28.242,28.242,0,0,0,8.978-1.6Z" transform="translate(0.058 0.067)" fill="#ed675c"/>
        <path id="Path_1723" data-name="Path 1723" d="M54.7,43.327l-.822-.3c.014.051,1.415,5.227-.776,6.724-1.5,1.029-5.182-1.929-7.152-3.681a11.213,11.213,0,0,1-1.216.079c1.53,1.441,5.185,4.649,7.612,4.648a2.12,2.12,0,0,0,1.228-.351c2.691-1.837,1.191-6.884,1.125-7.118" transform="translate(0.073 0.07)" fill="#c6b3ab"/>
        <path id="Path_1724" data-name="Path 1724" d="M42.493,45.952c-1.134.682-2.764,1.658-4.165,2.328-3.035,1.449-3.468.933-3.506.868-.82-1.331.026-4.554.571-5.86l-.794.464c-.218.521-1.687,3.906-.493,5.837.791,1.283,3.706.166,9.671-3.472a8.636,8.636,0,0,1-1.282-.166" transform="translate(0.055 0.07)" fill="#c6b3ab"/>
        <path id="Path_1725" data-name="Path 1725" d="M44,85.836a1.051,1.051,0,0,1-.315.058,1.471,1.471,0,0,1-.525-.1c-.131,3.624-.431,12.22-.644,20.856-.184,7.489-.247,12.635-.241,16.183l.837.008c-.007-9.194.438-24.86.887-37" transform="translate(0.069 0.14)" fill="#467a70"/>
        <path id="Path_1726" data-name="Path 1726" d="M44.4,119.777c-.1-.383-.914-3.775.3-5.084.956-1.035,22.224-22.6,24.267-24.673l-.656-22.906.841-.024.666,23.265-.126.128c-.233.237-23.4,23.724-24.378,24.781-.681.735-.422,3.031-.1,4.307Z" transform="translate(0.072 0.109)" fill="#467a70"/>
        <path id="Path_1727" data-name="Path 1727" d="M44.135,118.849c.075,0,2.386-1.722,9.146.156s5.549,5.434,3.924,6.724a6.664,6.664,0,0,1-4.252,1Z" transform="translate(0.072 0.192)" fill="#dbcac2"/>
        <rect id="Rectangle_2524" data-name="Rectangle 2524" width="2.947" height="106.525" transform="translate(31.962 141.387)" fill="#c6b3ab"/>
        <path id="Path_1728" data-name="Path 1728" d="M54.8,133.773h.084a1.828,1.828,0,0,0,1.8-2.148,10.866,10.866,0,0,0-2.634-5.467c-2.252-2.444-5.609-3.684-9.976-3.684-3.87,0-6.925,1.119-9.073,3.323-2.318,2.379-3.489,6-3.377,10.464l-.03,5.684a.513.513,0,0,0,.51.516h0l2.691.011a.513.513,0,0,0,.515-.511v0l.025-5.765c-.063-2.4.323-5.709,2.347-7.787,1.418-1.456,3.569-2.194,6.393-2.194,3.261,0,5.683.824,7.2,2.45a7.139,7.139,0,0,1,1.725,3.593,1.838,1.838,0,0,0,1.8,1.516" transform="translate(0.051 0.199)" fill="#897974"/>
        <path id="Path_1729" data-name="Path 1729" d="M33.268,124.627a2.47,2.47,0,0,1-2.883-.283c-1.634-1.182.587-5.231,4.191-7.233s6.348-1.682,7.913-.588,1.179,2.323,1.179,2.323Z" transform="translate(0.049 0.188)" fill="#dbcac2"/>
        <path id="Path_1730" data-name="Path 1730" d="M38.052,128.955a1.628,1.628,0,0,0,.365.354c.39.27.871.024,1.269-.153a.639.639,0,0,1,.378-.086.7.7,0,0,1,.306.212,2.532,2.532,0,0,0,2,.6,4.324,4.324,0,0,0,1.974-.8,6.274,6.274,0,0,0,1.1.8,2.1,2.1,0,0,0,1.315.248,15.838,15.838,0,0,0,1.764-.809,2,2,0,0,0,1.431.763,2.249,2.249,0,0,0,1.913-.658s.155-2.965,1.97-3.475c.28-.079,3.292-1.06,2.951-2.083-1.04-3.12-8.353-4.466-11.78-4.142a10.477,10.477,0,0,0-6.344,3.454,4.839,4.839,0,0,0-.959,5.169,2.84,2.84,0,0,0,.345.6" transform="translate(0.061 0.195)" fill="#fc9c76"/>
        <path id="Path_1731" data-name="Path 1731" d="M34.349,120.17a27.028,27.028,0,0,1,6.01-2.481c2.393-.466,8.343,1.762,8.881,2.913s1.619,4.059.144,6.344a3.076,3.076,0,0,1-.653.7c-.224.183-.432.377-.648.562a2.4,2.4,0,0,1-1.893.337.31.31,0,0,0-.145-.008c-.084.024-.126.115-.163.194a2.323,2.323,0,0,1-2.784,1.25,3.2,3.2,0,0,1-3.318.6,2.259,2.259,0,0,1-2.62.017,1.7,1.7,0,0,1-.408-.369,1.169,1.169,0,0,0-.186-.266c.1-.292.191-.592.277-.89a14.6,14.6,0,0,0,.459-2.036c.06-.439.19-1.173-.144-1.543-.683-.754-1.545.1-1.9.07s-2.625-.645-3.129-1.939,2.23-3.453,2.23-3.453" transform="translate(0.052 0.192)" fill="#fc9c76"/>
        <path id="Path_1732" data-name="Path 1732" d="M48.021,119.642A22.625,22.625,0,0,1,49.5,124.16c.1.68-.632,2-1.664,3-.66.642-1.1.808-1.2.791a.09.09,0,0,1,.028.013l-.493.683a.781.781,0,0,0,.472.148,1.729,1.729,0,0,0,.864-.3c1.258-.763,3.04-3.022,2.832-4.46a18.513,18.513,0,0,0-.865-3.059c-.162-.448-.293-.79-.4-1.059-.247-.038-.493-.071-.734-.1-.1-.06-.2-.12-.31-.18" transform="translate(0.075 0.195)" fill="#ed675c"/>
        <path id="Path_1733" data-name="Path 1733" d="M46.748,125.149c-.005.033-.577,3.5-2.253,4.791.069-.023.138-.049.205-.079a2.267,2.267,0,0,0,.369-.209,3.692,3.692,0,0,0,.368.222c.045.024.094.047.142.069,1.635-1.592,1.989-4.556,2-4.7Z" transform="translate(0.072 0.204)" fill="#ed675c"/>
        <path id="Path_1734" data-name="Path 1734" d="M43.354,126.139c-.072,1.018-.511,3.806-1.654,4.554a3.126,3.126,0,0,0,1.38-.731c.064.019.128.036.193.049a11.825,11.825,0,0,0,.92-3.813Z" transform="translate(0.068 0.205)" fill="#ed675c"/>
        <path id="Path_1735" data-name="Path 1735" d="M39.855,126.594c.078,1.26-.092,3.93-1.121,4.139a4.622,4.622,0,0,1-1.12.1,2.227,2.227,0,0,0,.513.135,2.286,2.286,0,0,0,1.635-.4c.092.037.186.068.281.1a8.726,8.726,0,0,0,.652-4.12Z" transform="translate(0.061 0.206)" fill="#ed675c"/>
        <path id="Path_1736" data-name="Path 1736" d="M41.964,116.278l-.748-.3a2.9,2.9,0,0,0-.086-2.122c-.312-.538-4.6-4.025-8.75-7.4C23.747,99.448,17.6,94.37,17.154,93c-.616-1.9.388-12.957,1.451-23.527.118-1.177.2-2.026.236-2.4l.838.071c-.033.39-.118,1.242-.237,2.422-.583,5.8-2.132,21.2-1.488,23.184.4,1.237,9.158,8.355,14.951,13.063,6.189,5.03,8.734,7.136,8.989,7.713a3.576,3.576,0,0,1,.065,2.762" transform="translate(0.028 0.109)" fill="#985d4a"/>
        <path id="Path_1737" data-name="Path 1737" d="M28.844,125.083a3.225,3.225,0,0,1-.5-.039c-1.639-.255-14.568-9.056-14.678-9.153l-.3-.2.008-1.19c.939.869,13.771,9.433,15.1,9.71,1.2.184,1.246-.033,1.55-.317l.548.56c-.034.042-.364.627-1.729.627" transform="translate(0.022 0.186)" fill="#ba6d5d"/>
        <path id="Path_1738" data-name="Path 1738" d="M72.349,115.913c-4.708,3.633-11.371,8.568-12.328,8.905a5.867,5.867,0,0,1-2.168.206,2.964,2.964,0,0,1-.69.724,7.565,7.565,0,0,0,1.1.16,6.493,6.493,0,0,0,2.04-.3c1.391-.493,10.8-7.74,12.009-8.673Z" transform="translate(0.093 0.189)" fill="#ba6d5d"/>
        <path id="Path_1739" data-name="Path 1739" d="M48.437,127.187a4.561,4.561,0,0,0-.34,2.3,2.673,2.673,0,0,1,.413-.175,1.951,1.951,0,0,0,.536.473,3.212,3.212,0,0,1,.173-2.293,5,5,0,0,1,2.064-2.567l-.326-.777a5.77,5.77,0,0,0-2.521,3.034" transform="translate(0.078 0.202)" fill="#ed675c"/>
        <path id="Path_1740" data-name="Path 1740" d="M35.995,11.717c-.332-.316-.768.172-.48.506a12.76,12.76,0,0,0,4.507,3.305,6.887,6.887,0,0,0,.491-.639,3.131,3.131,0,0,0,.944.366A17.03,17.03,0,0,1,36,11.721" transform="translate(0.058 0.019)" fill="#e2dedc"/>
        <path id="Path_1741" data-name="Path 1741" d="M56.984,11.671c.072-.348-.452-.594-.607-.238A8.594,8.594,0,0,1,53.046,14.9a2.772,2.772,0,0,0,.93-.62,7.874,7.874,0,0,0,.187.846,6.1,6.1,0,0,0,2.822-3.454" transform="translate(0.086 0.018)" fill="#e2dedc"/>
        <path id="Path_1742" data-name="Path 1742" d="M51.944,7.084c.264.341.819.025.583-.362A6.417,6.417,0,0,0,51.642,5.6a4.678,4.678,0,0,0-.67.35,13.411,13.411,0,0,1,.972,1.133" transform="translate(0.083 0.009)" fill="#fffbf8"/>
        <path id="Path_1743" data-name="Path 1743" d="M31.576,19.522a5.532,5.532,0,0,0,1.4.124c.013-.177.026-.354.038-.526l.084-.175h.048c-.5-.025-.995-.035-1.493-.086-.379-.039-.439.587-.072.664" transform="translate(0.051 0.031)" fill="#e2dedc"/>
        <path id="Path_1744" data-name="Path 1744" d="M57.352,20.8c-.2-.065-.413-.091-.616-.148-.068-.019-.134-.041-.2-.062.025.039.051.077.075.113,0,.24,0,.484.006.728a1.707,1.707,0,0,0,.659.07.358.358,0,0,0,.077-.7" transform="translate(0.092 0.034)" fill="#e2dedc"/>
        <path id="Path_1745" data-name="Path 1745" d="M44.944,26.268a7.771,7.771,0,0,0-1.934.093c-.445.066-.444.766.018.713.645-.074,1.287-.07,1.934-.089.476-.014.427-.671-.018-.717" transform="translate(0.069 0.043)" fill="#ffae92"/>
      </g>
    </g>
    <g id="Group_2499" data-name="Group 2499" transform="translate(236.277 415.764)" clip-path="url(#clip-path-3)">
      <path id="Path_1746" data-name="Path 1746" d="M137.268,103.307c15.1-.986,18.53,25.871,16.255,28.175s-8.236,1.694-8.236,1.694H129.53s-7.822,2.15-9.525-1.854c-2.472-5.809,2.137-27.028,17.264-28.015" transform="translate(-92.484 -96.963)" fill="#adadad"/>
      <path id="Path_1747" data-name="Path 1747" d="M144.517,136.681l-.149-2.8-14.46.561-.085,3.22-7.572,1.975,6.225,6.648H143.75l6.681-7.9Z" transform="translate(-92.48 -96.913)" fill="#be7559"/>
      <path id="Path_1748" data-name="Path 1748" d="M126.611,138.305a12.732,12.732,0,0,0,11.377,5.888c7.512-.06,11.218-5.5,11.44-6.511,2.644.864,11.484,3.185,14.066,6.3,3.269,3.948,5.579,31.685,4.093,33.167-1.733,1.726-52.306,10.755-52.306,10.755l-1.235.856s-6.821-5.16-7.889-7.7c-.344-.819.851-6.7,1.891-12.975,1.641-9.916,3.736-21.791,5.2-23.709,1.876-2.465,9.808-5.253,13.368-6.077" transform="translate(-92.506 -96.907)" fill="#67b6a8"/>
      <path id="Path_1749" data-name="Path 1749" d="M114.021,174.713s-.773,6.752-1.188,11.48c-.14,1.6,1.55,1.5,1.194,2.443-.551,1.47,44.3.809,44.22.078-.056-.527.179-1.6.109-2.775-.292-4.9-.875-12.213-.875-12.213Z" transform="translate(-92.495 -96.848)" fill="#67b6a8"/>
      <path id="Path_1750" data-name="Path 1750" d="M116.632,161.412l.29-.837a7.523,7.523,0,0,0-.29.837" transform="translate(-92.489 -96.869)" fill="#67b6a8"/>
      <path id="Path_1751" data-name="Path 1751" d="M154.967,158.855s-3.506,6.31-4.39,6.545-32.436,1.838-33.7,0a6.671,6.671,0,0,1-1.093-4.407l-.971,4.45,1.918,4.359s-2.537,14.363-2.78,17.128c-.141,1.6.069,1.721.069,1.721-.551,1.471,44.3.81,44.219.079-.056-.527.049-1.551-.021-2.723-.145-2.429.227-5.527-.1-7.949.221,0,.439-.012.654-.018-1.618-8.778-3.806-19.192-3.806-19.192" transform="translate(-92.493 -96.872)" fill="#67b6a8"/>
      <path id="Path_1752" data-name="Path 1752" d="M153.467,156.44c0,.146,1.475,13.262,1.475,13.262l.344,13.374a38.975,38.975,0,0,0,1.559,3.873c.666.205,7.713.08,10.485-3.1,2.512-2.884.5-15.291.5-15.291s-6.253-10.762-6.46-10.645-7.9-1.475-7.9-1.475" transform="translate(-92.429 -96.876)" fill="#67b6a8"/>
      <path id="Path_1753" data-name="Path 1753" d="M157.288,187.01a4.509,4.509,0,0,1-2.313-.409c-.187-.161-.265-.228-.356-8.656-.041-3.925-.059-7.879-.061-8.213l-1.892-15.67.734-.1,1.868,15.715v.022c.188,6.027.14,15.09.273,16.364a26.436,26.436,0,0,0,4.007.856l-1.271.169c-.166.007-.746-.079-.991-.079" transform="translate(-92.43 -96.88)" fill="#467a70"/>
      <path id="Path_1754" data-name="Path 1754" d="M113.788,188.5l.33-1.363,3.17-17.829-1.962-3.766a35.553,35.553,0,0,1,3.189-11.678l-.7-.314a35.081,35.081,0,0,0-3.264,12.069v.1l1.938,3.722L113.1,187.831Z" transform="translate(-92.495 -96.881)" fill="#467a70"/>
      <path id="Path_1755" data-name="Path 1755" d="M114.882,175.27l7.479,10.7,6.811,3.775a9.3,9.3,0,0,1,2.83-2c7.647-2.714,25.2-13.822,25.788-13.908.7-.1,10.345,3.159,8.013,8.946-.289.718-23.345,8.9-30.713,12.89-2.156,1.168-10.466,2.091-10.466,2.091s-17.9-17.3-17.244-18.458,5.7-4.521,7.5-4.033" transform="translate(-92.504 -96.848)" fill="#be8069"/>
      <path id="Path_1756" data-name="Path 1756" d="M120.275,184.768c-.057.085-3.373,5.216-3.373,5.216l3.685,3.6a6.16,6.16,0,0,0-.708,1.673c-.029.511,1.332,1.645,1.332,1.645a12.229,12.229,0,0,0,.68,1.361,5.933,5.933,0,0,0,1.588,0,5.578,5.578,0,0,0,.737,1.219,5.61,5.61,0,0,0,1.446.113s.708.652.936.652a63.781,63.781,0,0,0,6.236-2.693c.539-.4,3.629-3.118,3.629-3.118l3.8-2.439-3.912-5.754-4.507,1.531a12.678,12.678,0,0,0-2.4-.936,2.34,2.34,0,0,0-.714.028s-2.24-1.5-3.487-1.5-2.835.312-3,.255-1.956-.85-1.956-.85" transform="translate(-92.488 -96.83)" fill="#fc9c76"/>
      <path id="Path_1757" data-name="Path 1757" d="M128.1,110.458c0,.313-3.819,11.551-3.741,13.034s2.113,9.225,3.876,10.559,8.773,3.436,10.257,3.279a25.913,25.913,0,0,0,7.412-3.466c.781-.78,3.916-9.748,3.526-11.934s-3.758-11.627-4.461-12.485-7.12-3.834-8.044-3.912-8.819,4.925-8.819,4.925" transform="translate(-92.476 -96.959)" fill="#be7559"/>
      <path id="Path_1758" data-name="Path 1758" d="M144.4,134.769a19.4,19.4,0,0,1-6.892,2.361c-2.711.159-6.451-1.567-7.628-2.15l-.019.734c1.485.738,4.708,2.175,7.312,2.175.128,0,.255,0,.381-.011a19.293,19.293,0,0,0,6.892-2.282Z" transform="translate(-92.467 -96.911)" fill="#804b37"/>
      <path id="Path_1759" data-name="Path 1759" d="M132.413,117.368a20.372,20.372,0,0,0-3.242.7c-.635.176-.339,1.13.3.977,1.03-.249,2.08-.423,3.105-.689.543-.141.415-1.052-.16-.991" transform="translate(-92.469 -96.94)" fill="#804b37"/>
      <path id="Path_1760" data-name="Path 1760" d="M144.358,117.938a8.65,8.65,0,0,0-3.965-.588.513.513,0,1,0,.027,1.026,16.774,16.774,0,0,1,3.569.507c.541.111.921-.7.37-.945" transform="translate(-92.451 -96.94)" fill="#804b37"/>
      <path id="Path_1761" data-name="Path 1761" d="M127.052,132.358s-1.876-8.707.291-14.971,13.066-9.938,13.85-8.493,4.455,7.159,4.757,8.457.271,9.028,1.656,10.593a3.25,3.25,0,0,0,3.041,1.167s-.722-18.17-4.877-21.3-12-5.519-18.666,1.686c-4.465,4.824-5.54,16.273-5.54,16.273Z" transform="translate(-92.481 -96.96)" fill="#e5dfda"/>
      <path id="Path_1762" data-name="Path 1762" d="M130.021,121.794a2.223,2.223,0,0,1,1.467-.069,1.034,1.034,0,1,0-1.467.069" transform="translate(-92.468 -96.936)" fill="#49263e"/>
      <path id="Path_1763" data-name="Path 1763" d="M141.569,121.794a2.223,2.223,0,0,1,1.467-.069,1.034,1.034,0,1,0-1.467.069" transform="translate(-92.449 -96.936)" fill="#49263e"/>
      <path id="Path_1764" data-name="Path 1764" d="M136.514,129.935a5.173,5.173,0,0,1-4.125-1.542l.591-.462c.043.054,1.086,1.315,3.73,1.252a5.05,5.05,0,0,0,3.755-1.378l.58.475a5.751,5.751,0,0,1-4.316,1.652h-.215" transform="translate(-92.463 -96.923)" fill="#804b37"/>
      <path id="Path_1765" data-name="Path 1765" d="M147.221,115.913v-.158l-.1-.124c-.9-1.169-2.115-3.06-3.157-4.749-.364.007-.728.012-1.092.015,1.074,1.756,2.4,3.847,3.412,5.18.025,1.351.321,10.269,3.87,12.4l.482-.8c-3.313-1.985-3.417-11.66-3.418-11.757" transform="translate(-92.446 -96.95)" fill="#f4ebe6"/>
      <path id="Path_1766" data-name="Path 1766" d="M122.213,118.679l-.9-.264a26.821,26.821,0,0,1,3.581-7.15c3.345-4.738,7.728-7.312,12.674-7.439,4.107-.1,7.891,2.346,10.941,7.093a31.236,31.236,0,0,1,3.37,7.185l-.9.267c-.041-.137-4.166-13.611-13.153-13.611h-.236c-11.248.293-15.34,13.78-15.38,13.917" transform="translate(-92.481 -96.962)" fill="#f4ebe6"/>
      <path id="Path_1767" data-name="Path 1767" d="M124.851,125.786a18.392,18.392,0,0,1,.856-8.087c1.339-3.873,4.724-8.821,13.247-10.4l.17.92c-6.472,1.2-10.684,4.476-12.52,9.749a17.765,17.765,0,0,0-.828,7.67Z" transform="translate(-92.476 -96.956)" fill="#f4ebe6"/>
      <path id="Path_1768" data-name="Path 1768" d="M151.675,129.672a28.028,28.028,0,0,1-3.606-1.288c-.092.347-.257.7-.345,1.046a13.407,13.407,0,0,0,3.711,1.224.506.506,0,0,0,.243-.982" transform="translate(-92.438 -96.922)" fill="#d3cbc7"/>
      <path id="Path_1769" data-name="Path 1769" d="M143.875,109.84c.538.1.917-.676.369-.941a5.585,5.585,0,0,0-3.875-.322c.411.018.691.119.794.31.093.172.228.406.393.685a12.291,12.291,0,0,1,2.32.267" transform="translate(-92.45 -96.954)" fill="#d3cbc7"/>
      <path id="Path_1770" data-name="Path 1770" d="M126.671,130.034a6.364,6.364,0,0,1-2.863-1.237.516.516,0,0,0-.71.748,6.513,6.513,0,0,0,3.74,1.613c-.052-.32-.11-.7-.167-1.124" transform="translate(-92.478 -96.921)" fill="#d3cbc7"/>
    </g>
  </g>
</svg>
