<svg xmlns="http://www.w3.org/2000/svg" xmlns:xlink="http://www.w3.org/1999/xlink" width="353" height="361.088" viewBox="0 0 353 361.088">
  <defs>
    <clipPath id="clip-path">
      <rect id="Rectangle_2330" data-name="Rectangle 2330" width="181.253" height="347.039" fill="none"/>
    </clipPath>
    <clipPath id="clip-path-3">
      <rect id="Rectangle_2331" data-name="Rectangle 2331" width="353" height="189.823" fill="none"/>
    </clipPath>
    <clipPath id="clip-path-4">
      <rect id="Rectangle_1" data-name="Rectangle 1" width="78.807" height="10.502" fill="none"/>
    </clipPath>
  </defs>
  <g id="Group_2444" data-name="Group 2444" transform="translate(-16 -175.956)">
    <g id="Group_2081" data-name="Group 2081" transform="translate(101.153 175.956)">
      <g id="Group_2080" data-name="Group 2080" transform="translate(0)">
        <g id="Group_2079" data-name="Group 2079" transform="translate(0)" clip-path="url(#clip-path)">
          <g id="Group_2078" data-name="Group 2078">
            <g id="Group_2077" data-name="Group 2077" clip-path="url(#clip-path)">
              <path id="Path_736" data-name="Path 736" d="M161.268,343.647H32.063A17.113,17.113,0,0,1,14.95,326.534V24.89A17.113,17.113,0,0,1,32.063,7.776H161.268A17.113,17.113,0,0,1,178.382,24.89V326.534a17.113,17.113,0,0,1-17.113,17.113" transform="translate(-4.326 -2.25)" fill="#f08969"/>
              <path id="Path_737" data-name="Path 737" d="M4.868,123.46h0A4.881,4.881,0,0,1,0,118.594V110.08a4.867,4.867,0,0,1,9.733,0v8.515a4.881,4.881,0,0,1-4.867,4.866" transform="translate(0 -30.47)" fill="#183543"/>
              <path id="Path_738" data-name="Path 738" d="M4.868,153.94h0A4.881,4.881,0,0,1,0,149.074v-8.515a4.867,4.867,0,1,1,9.733-.165c0,.055,0,.11,0,.165v8.515a4.881,4.881,0,0,1-4.867,4.867" transform="translate(0 -39.243)" fill="#183543"/>
              <path id="Path_739" data-name="Path 739" d="M6.444,86.674H5.432A4.542,4.542,0,0,1,.9,82.146V76.734a4.542,4.542,0,0,1,4.528-4.528h1.01a4.541,4.541,0,0,1,4.528,4.528v5.412a4.542,4.542,0,0,1-4.527,4.528" transform="translate(-0.262 -20.895)" fill="#183543"/>
              <path id="Path_740" data-name="Path 740" d="M251.917,90.231v26.736a12.88,12.88,0,0,1-.352,3.207,2.669,2.669,0,0,1-.386.9.416.416,0,0,1-.319.2h-5.607c-.581,0-1.057-1.943-1.057-4.313V90.231c0-2.371.476-4.311,1.057-4.311h5.607a.415.415,0,0,1,.319.2,2.666,2.666,0,0,1,.386.9,12.876,12.876,0,0,1,.352,3.206" transform="translate(-70.665 -24.864)" fill="#183543"/>
              <path id="Path_741" data-name="Path 741" d="M149.87,0H35.4A29.616,29.616,0,0,0,5.812,29.582V317.457A29.616,29.616,0,0,0,35.4,347.039H149.87a29.616,29.616,0,0,0,29.582-29.582V29.582A29.616,29.616,0,0,0,149.87,0m22.976,317.53a19.677,19.677,0,0,1-4.164,12.129.088.088,0,0,1-.018.022c-.09.117-.186.234-.277.347A19.723,19.723,0,0,1,153.07,337.3H32.184a19.7,19.7,0,0,1-13.294-5.134l-.023-.023c-.108-.1-.217-.2-.323-.3a19.717,19.717,0,0,1-6.13-14.313V27.829A19.772,19.772,0,0,1,32.185,8.057H54.03a18.315,18.315,0,0,1,11.421,4.009,16.6,16.6,0,0,0,10.408,3.845H109.41a16.614,16.614,0,0,0,10.408-3.848,18.316,18.316,0,0,1,11.417-4.006h21.847a19.666,19.666,0,0,1,10.575,3.064l.1.065a19.759,19.759,0,0,1,9.094,16.643Z" transform="translate(-1.682)" fill="#183543"/>
            </g>
          </g>
        </g>
      </g>
      <path id="Path_34" data-name="Path 34" d="M135.442,217.608c0-.022.221,0,.636-.09a3.759,3.759,0,0,0,.811-6.895,3.375,3.375,0,0,0-1.13-.311c-.4-.028-.838-.005-1.272-.01l-2.759.012-6.259.024-15.256.041-88.338.083a3.177,3.177,0,0,0-2.549,1.285,3.849,3.849,0,0,0-.591,2.847,3.172,3.172,0,0,0,1.591,2.329,3.133,3.133,0,0,0,1.385.395c.5.017,1.045,0,1.563.009l12.407,0,23.455.016,39.715.061,26.775.09,7.279.053,1.894.027c.426.01.645.029.645.029s-.219.02-.645.029l-1.894.028-7.279.052-26.775.09-39.715.061-23.455.016-12.407,0c-.532,0-1.037.01-1.592-.009a3.716,3.716,0,0,1-3.507-3.209,6.806,6.806,0,0,1,.018-1.682,3.641,3.641,0,0,1,.678-1.581,3.746,3.746,0,0,1,3-1.512l88.338.083,15.256.041,6.259.024,2.759.012c.442.009.857-.011,1.294.024a3.575,3.575,0,0,1,3.2,3.879,3.544,3.544,0,0,1-1.184,2.8,3.384,3.384,0,0,1-1.7.82,2.241,2.241,0,0,1-.647.034" transform="translate(12.065 -5.381)" fill="#263238"/>
      <path id="Path_35" data-name="Path 35" d="M75.211,216.5H22.192a2.519,2.519,0,0,1-2.52-2.52V213.6a2.518,2.518,0,0,1,2.52-2.52H75.211a2.52,2.52,0,0,1,2.52,2.52v.384a2.521,2.521,0,0,1-2.52,2.52" transform="translate(12.199 -5.278)" fill="#ffcb1d"/>
      <path id="Subtraction_2" data-name="Subtraction 2" d="M14.387,28.8h0A14.4,14.4,0,0,1,3.554,4.93a14.309,14.309,0,0,1,9.875-4.9c.328-.022.66-.033.988-.033A14.4,14.4,0,0,1,25.249,23.875a14.306,14.306,0,0,1-9.876,4.9C15.046,28.793,14.714,28.8,14.387,28.8ZM12.653,10.237a.777.777,0,0,0-.776.776v6.614a.777.777,0,0,0,.775.776.762.762,0,0,0,.377-.1l5.5-3.071a.751.751,0,0,0,.044-1.286l-5.5-3.581A.771.771,0,0,0,12.653,10.237Z" transform="translate(77.534 231.832)" fill="#f7dbc6" stroke="rgba(0,0,0,0)" stroke-width="1"/>
      <path id="Path_38" data-name="Path 38" d="M31.638,252.681c-.313,0-.566-1.919-.566-4.286s.253-4.285.566-4.285.566,1.918.566,4.285-.253,4.286-.566,4.286" transform="translate(13.193 -2.398)" fill="#f08969"/>
      <path id="Path_39" data-name="Path 39" d="M40.892,244.577l-5.558,2.968a.752.752,0,0,0-.068,1.285l5.434,3.683a.774.774,0,0,0,1.209-.626l.123-6.612a.775.775,0,0,0-1.139-.7" transform="translate(13.53 -2.365)" fill="#f7dbc6"/>
      <path id="Path_40" data-name="Path 40" d="M114.915,244.111c.313,0,.566,1.919.566,4.285s-.253,4.286-.566,4.286-.566-1.918-.566-4.286.254-4.285.566-4.285" transform="translate(20.453 -2.398)" fill="#f08969"/>
      <path id="Path_41" data-name="Path 41" d="M106.141,252.182l5.558-2.968a.752.752,0,0,0,.068-1.285l-5.434-3.683a.774.774,0,0,0-1.209.626L105,251.484a.775.775,0,0,0,1.139.7" transform="translate(19.639 -2.398)" fill="#f7dbc6"/>
      <path id="Path_47" data-name="Path 47" d="M134.021,174.384c0,.157-25.461.283-56.861.283s-56.866-.126-56.866-.283,25.455-.283,56.866-.283,56.861.126,56.861.283" transform="translate(12.254 -3.211)" fill="#263238"/>
      <path id="Path_48" data-name="Path 48" d="M115.3,182.335c0,.157-17.7.283-39.527.283s-39.531-.126-39.531-.283,17.7-.283,39.531-.283,39.527.126,39.527.283" transform="translate(13.644 -2.518)" fill="#263238"/>
      <path id="Path_43" data-name="Path 43" d="M73.559,111.862a24.831,24.831,0,0,0,2.843-.475,11.712,11.712,0,0,0,6.34-4.289,11.517,11.517,0,0,0,1.61-10.9,11.544,11.544,0,0,0-4.011-5.327,11.439,11.439,0,0,0-13.565,0,11.522,11.522,0,0,0-4.012,5.327,11.52,11.52,0,0,0,1.61,10.906,11.718,11.718,0,0,0,6.34,4.289,24.939,24.939,0,0,0,2.843.474,9.137,9.137,0,0,1-2.9-.261,11.852,11.852,0,0,1-8.879-9.279,11.981,11.981,0,0,1,.491-6.306,12.006,12.006,0,0,1,4.173-5.6,11.946,11.946,0,0,1,14.222,0,12.01,12.01,0,0,1,4.173,5.6,11.993,11.993,0,0,1,.491,6.306,11.827,11.827,0,0,1-2.273,5.021,11.7,11.7,0,0,1-6.606,4.26,9.137,9.137,0,0,1-2.9.261" transform="translate(19.372 0.181)" fill="#263238"/>
      <path id="Path_44" data-name="Path 44" d="M58.18,127.542a4.456,4.456,0,0,1-.7-.409,20.863,20.863,0,0,1-1.919-1.314,30.033,30.033,0,0,1-6-6.081,34.55,34.55,0,0,1-3.119-5.034,35.3,35.3,0,0,1-2.407-6.36A30.538,30.538,0,0,1,50.967,79.22a35.384,35.384,0,0,1,5.016-4.593,34.621,34.621,0,0,1,5.053-3.088,30.083,30.083,0,0,1,8.1-2.721,20.583,20.583,0,0,1,2.3-.308,4.253,4.253,0,0,1,.808-.05c.008.062-1.106.171-3.07.574A31.749,31.749,0,0,0,61.217,71.9,35.183,35.183,0,0,0,56.265,75a35.635,35.635,0,0,0-4.909,4.565,30.328,30.328,0,0,0-6.821,28.643A35.6,35.6,0,0,0,46.86,114.5a35.14,35.14,0,0,0,3.02,5,31.743,31.743,0,0,0,5.819,6.145c1.571,1.246,2.517,1.845,2.482,1.9" transform="translate(17.744 -1.53)" fill="#fafafa"/>
      <path id="Path_45" data-name="Path 45" d="M88.558,73.115a5.75,5.75,0,0,1-2.308-1c-1.2-.689-2.1-1.357-2.027-1.493a5.783,5.783,0,0,1,2.309,1c1.2.689,2.1,1.357,2.025,1.493" transform="translate(21.346 -1.343)" fill="#fafafa"/>
      <path id="Path_46" data-name="Path 46" d="M104.045,90.042a1.971,1.971,0,0,1,.161.524c.078.349.229.859.334,1.532a30.97,30.97,0,0,1,.492,5.749A33.516,33.516,0,0,1,85.489,128.33a31.042,31.042,0,0,1-5.429,1.953c-.656.185-1.182.261-1.532.336a1.938,1.938,0,0,1-.543.072A20.568,20.568,0,0,1,80,130.07a35.779,35.779,0,0,0,5.316-2.1,34.029,34.029,0,0,0,19.316-30.127,35.769,35.769,0,0,0-.31-5.709,20.5,20.5,0,0,1-.277-2.091" transform="translate(20.802 0.353)" fill="#fafafa"/>
    </g>
    <g id="Group_2083" data-name="Group 2083" transform="translate(16 347.221)">
      <g id="Group_2082" data-name="Group 2082" clip-path="url(#clip-path-3)">
        <path id="Path_742" data-name="Path 742" d="M596.122,399.477c-4.24-1.7-8.71-2.931-13.108-4.29-1.352-.418-2.7-.85-4.031-1.308-4.336-1.5-6.308-1.855-10.4-3.931,0,0-5.532-5.788-8.25-10.695a174.624,174.624,0,0,1-17.111,8.25c-1.426-1.412,3.3,4.652,6.87,9.6a4.107,4.107,0,0,1,.72,1.874c.28,1.986-.311,4.248,1.537,5.288,2.177,1.22,30.06.4,39.549.461,1.707-.078,5.537-.729,6.046-2.928.3-1.3-.812-1.918-1.822-2.324" transform="translate(-308.345 -215.376)" fill="#ff8d8a"/>
        <path id="Path_743" data-name="Path 743" d="M608.261,422.743c-.509,2.2-4.339,2.851-6.046,2.928-9.49-.062-37.373.759-39.549-.461-1.849-1.04-1.257-3.3-1.537-5.288,4.544,1.67,17.388,1.015,24.787.809,7.371-.206,7.414-4.568,7.415-4.6,4.4,1.359,8.868,2.586,13.108,4.29,1.011.406,2.122,1.029,1.822,2.324" transform="translate(-318.663 -236.318)" fill="#db453a"/>
        <path id="Path_744" data-name="Path 744" d="M511.454,303.5c-12.644-18.078-36.684-56.238-38.956-58.582-4.408-4.512-12.35-4.922-18.531-.111s-7.611,14.294-3.344,19.739c4.108,5.241,30.845,38.388,40.846,48.51,7.4.128,17.184-4.1,19.985-9.556" transform="translate(-254.515 -137.072)" fill="#67b6a8"/>
        <path id="Path_745" data-name="Path 745" d="M229.405,288.06A344.95,344.95,0,0,1,302.943,246.9c8.691-3.569,17.922-7.16,27.322-8.678,7.412-1.2,12.815,4.241,14.985,12.977,1.569,6.317-2.881,14.663-7.054,18.523-4.6,4.255-52.687,36.511-76.177,48.9-9.893,5.219-37.278,9.472-41.41,2.647-6.335-10.463-1.234-25.786,8.8-33.211" transform="translate(-123.698 -135.191)" fill="#67b6a8"/>
        <path id="Path_746" data-name="Path 746" d="M200.165,148.369c4.985,4.33,13.407,7.049,19.447,9.364a242.585,242.585,0,0,0,25.759,8.17,381.936,381.936,0,0,0,53.623,9.7c8.9,1,18.713.767,27.488,2.494,2.089.411,8.2,2.41,6.778,5.419-1.174,2.492-13.063,2.905-15.647,3.281-11.408,1.659-22.534,3.013-34.035,2.486-26.534-1.215-53.439-4.327-78.848-12.424-6.282-2-12.963-4.125-18.574-7.66-15.761-9.93.369-32.639,14.009-20.831" transform="translate(-102.023 -82.372)" fill="#ffc2c2"/>
        <path id="Path_747" data-name="Path 747" d="M187.6,144.511a361.17,361.17,0,0,0,57.574,20.822,270.339,270.339,0,0,0,30.434,6.2c6.88.973,20.526.259,19.145,10.809-1.332,10.18-20.2,10.193-28.01,10.91a171.223,171.223,0,0,1-35.586-.7c-18.768-2.2-38.234-6.58-55.6-14.22-8.148-3.585-14.535-9.791-13.549-19.506,1.256-12.379,14.493-19.365,25.594-14.314" transform="translate(-91.943 -81.126)" fill="#f7dbc6"/>
        <path id="Path_748" data-name="Path 748" d="M179.883,115.611c-8.869.1-19.737,1.053-19.737,1.053l-3.374-28.387,22.584,7.071s.05,1.469.118,3.645c.016.466.032.963.048,1.487.155,4.908.36,12.013.36,15.132" transform="translate(-89.03 -50.132)" fill="#ffc2c2"/>
        <path id="Path_749" data-name="Path 749" d="M34.23,396.21s-2.5,9.406-8.642,10.065c-4.456.478-9.377-1.365-12.105,0C6.115,409.96-.727,413.644.062,414.7c0,0,28.668.033,37.636-.187a5,5,0,0,0,4.206-2.473,67.836,67.836,0,0,0,4.541-9.978C35.88,399.872,34.23,396.21,34.23,396.21" transform="translate(0 -225.006)" fill="#ffc2c2"/>
        <path id="Path_750" data-name="Path 750" d="M512.808,223.279l2.483-.694a10.484,10.484,0,0,1,4.415.863c4.163,2.222,14.374,6.409,15.474,8.458,1.312,2.444,7.9,13.634,7.9,13.634s-3.006.264-4.427-1.838c-.611-.9-6.245-8.929-6.986-9.135-1.366-.38-4.887.5-4.5.913,1.75,1.853,6.732,5.6,6.673,7.453a3.1,3.1,0,0,1-1.283,2.584s-6.526-4.578-8.574-5.517-6.562-6.875-7.481-8.981-3.7-7.739-3.7-7.739" transform="translate(-291.221 -126.389)" fill="#ffc2c2"/>
        <path id="Path_751" data-name="Path 751" d="M752.754,356.555c-.021.041-.042.083-.062.127-1.081,2.144-15.58,30.816-18.34,30.723-.089,0-3.327,0-7.567,0-8.255,0-20.3,0-20.3,0l1.549-15.645,15.37,1.3c0-.073,8.612-7.728,16.388-14.3,5.736-4.848,11.014-9.122,12.026-9.338,2.381-.513,3.482,1.892.939,7.129" transform="translate(-401.207 -198.399)" fill="#ffc2c2"/>
        <path id="Path_752" data-name="Path 752" d="M426.141,348.312S320.631,331.5,264.565,325.42l-7.993-17.509s-52.458,26.114-51.219,30.062C209,349.578,208.868,364.646,223,364.684l202.651-.726a16.721,16.721,0,0,0,.486-15.646" transform="translate(-116.607 -174.861)" fill="#67b6a8"/>
        <path id="Path_753" data-name="Path 753" d="M221.79,219.972c5.3,4.208-4.414,10.792-15,17.048-7.369,4.355-32.1,13.413-36.57,11.348l-12.353-35.089-1.92-5.457-13.832-39.287a22.169,22.169,0,0,1,14.672-27.7c10.34-3.176,18.35-.509,25.82,6.717,2.56,2.478,11.782,11.369,14.183,13.736,7.221,7.117,9.236,12.921,9.474,18.158.688,15.14,7.622,34.248,15.526,40.527" transform="translate(-80.148 -79.229)" fill="#f7dbc6"/>
        <path id="Path_754" data-name="Path 754" d="M440.817,225.524l-1.1-17.17a3.092,3.092,0,0,1,2.889-3.283l9.031-.576a3.092,3.092,0,0,1,3.282,2.889l1.1,17.17a3.091,3.091,0,0,1-2.889,3.282l-9.031.577a3.092,3.092,0,0,1-3.283-2.889" transform="translate(-249.712 -116.128)" fill="#f7dbc6"/>
        <path id="Path_755" data-name="Path 755" d="M138.025,172.115c-6.974,19.317-16.792,37.948-26.96,55.772-5.392,9.454-10.107,19.46-16.586,28.252-6.6,8.953-18.657,1.03-16.86-5.505,3.785-13.763,5.849-22.365,9.979-36.473,5.022-17.159,8.966-32,13.075-46.8,2.779-10,9.947-21.062,22.075-20.177,12.224.892,19.763,13.721,15.277,24.927" transform="translate(-43.977 -83.559)" fill="#f7dbc6"/>
        <path id="Path_756" data-name="Path 756" d="M86.563,388.8l-16.138-5.964a3.092,3.092,0,0,1-1.829-3.972l3.137-8.489a3.092,3.092,0,0,1,3.972-1.829l16.139,5.964a3.092,3.092,0,0,1,1.828,3.972l-3.137,8.488a3.092,3.092,0,0,1-3.972,1.829" transform="translate(-38.846 -209.187)" fill="#f7dbc6"/>
        <path id="Path_757" data-name="Path 757" d="M156.982,122.377s-2.631,5.454.688,13.419c1.72,4.129,26.813,2.745,29.247-1.721,1.812-3.324,1.63-13.073-1.933-14.351-2.2-.788-26.97-.1-28,2.653" transform="translate(-88.587 -67.817)" fill="#f7dbc6"/>
        <path id="Path_758" data-name="Path 758" d="M779.439,356.555c-.021.041-.042.083-.062.127-1.081,2.144-15.58,30.816-18.34,30.723-.089,0-3.327,0-7.567,0,.523-.485,5.478-6.255,5.722-6.555a59.8,59.8,0,0,0,3.682-5.062q1.327-2.033,2.488-4.174a20.26,20.26,0,0,0,2.419-6.338,8.754,8.754,0,0,0-1.308-6.51c5.736-4.848,11.014-9.122,12.026-9.338,2.381-.513,3.482,1.892.939,7.129" transform="translate(-427.893 -198.399)" fill="#707070"/>
        <path id="Path_759" data-name="Path 759" d="M178.67,35.6c-.419.63-.379,1.858-.2,3.361.019.153.037.306.059.465.043.306.086.62.131.945.076.51.156,1.038.232,1.573.513,3.7.792,7.749-2.331,8.92a21.566,21.566,0,0,1-24.21-7.1C143.634,33.113,137.869,13.395,149.9,7.2c5.522-2.838,15.95-2.175,21.4,8.928,1.7,4.632,1.57,6.546,2.1,8.947.526,2.368,1.54,2.527,2.861,3.422,2.435,1.654,4.772,1.577,4.772,3.682,0,1.054-1.053,2.368-2.371,3.423" transform="translate(-81.239 -3.281)" fill="#ffc2c2"/>
        <path id="Path_760" data-name="Path 760" d="M198.558,59.3c1.62.328,3.483.436,4.052-1.363l1.41.879a3.32,3.32,0,0,1-3.815,1.45c-.406-.08-2.611-.635-1.647-.966" transform="translate(-112.623 -32.902)" fill="#1c0628"/>
        <path id="Path_761" data-name="Path 761" d="M218.449,84.6a6.987,6.987,0,0,1-5.023.363c-.553-.192-.315-1.079.244-.883a6.212,6.212,0,0,0,4.648-.425c.043.305.086.62.131.944" transform="translate(-121.025 -47.507)" fill="#1c0628"/>
        <path id="Path_762" data-name="Path 762" d="M218.449,84.6a6.987,6.987,0,0,1-5.023.363c-.553-.192-.315-1.079.244-.883a6.212,6.212,0,0,0,4.648-.425C218.361,83.959,218.4,84.274,218.449,84.6Z" transform="translate(-121.025 -47.507)" fill="none" stroke="#1c0628" stroke-linecap="round" stroke-linejoin="round" stroke-width="0.5"/>
        <path id="Path_763" data-name="Path 763" d="M149.813,69.986c2.577,3.963,5.377,4.557,7.237,3.832,2.535-.989,2.5-3.464.981-7.368s-4.063-7.231-6.953-6.113c-3.669,1.419-3.55,6.137-1.265,9.65" transform="translate(-84.157 -34.14)" fill="#ff9f9f"/>
        <path id="Path_764" data-name="Path 764" d="M197.577,44.405s-3.6-2.162-8.169,4.325" transform="translate(-107.565 -25.021)" fill="none" stroke="#1c0628" stroke-linecap="round" stroke-linejoin="round" stroke-width="1"/>
        <path id="Path_765" data-name="Path 765" d="M129.7,5.641C131.061,16.6,120.171,21.8,117.619,30.21c-1.111,3.65,1.212,7.2,2.144,10.611,1.181,4.326.153,8.46-3.368,11.222-7.068,5.541-18.867,6.828-27.5,4.278-.473-.14-3.548-7.185,6.822-19.716-6.049,4.321-11.235,13.827-8.432,19.5a40.223,40.223,0,0,1-6.871-1.248A17.53,17.53,0,0,1,83.031,43.5c2.4-3.757,6.3-6.7,7.41-11.019a25.962,25.962,0,0,0,.312-6.757A29.684,29.684,0,0,1,93.83,11.842,21.213,21.213,0,0,1,108.783.547c.457-.095,1.116-.19,1.92-.275a53.127,53.127,0,0,1,6.782-.254c5.957.16,12.495,1.413,12.218,5.623" transform="translate(-45.602 0)" fill="#42210b"/>
        <path id="Path_766" data-name="Path 766" d="M88.576,46.694c-.193,1.607-.449,3.189-.74,4.773s-.632,3.156-1.059,4.719a21.39,21.39,0,0,1-.783,2.324l-.261.571-.28.54q-.286.537-.592,1.063a30.893,30.893,0,0,1-2.784,3.98c-.511.624-1.025,1.241-1.585,1.838s-1.124,1.152-1.676,1.724a20.369,20.369,0,0,0-2.95,3.66,8.856,8.856,0,0,0-1.333,4.362A10.056,10.056,0,0,0,75.59,80.72l0,0a.336.336,0,0,1-.608.287,10.744,10.744,0,0,1-1.155-4.777,9.578,9.578,0,0,1,1.4-4.723,21.078,21.078,0,0,1,3.03-3.817c.555-.582,1.119-1.15,1.658-1.728s1.038-1.189,1.537-1.805a30.06,30.06,0,0,0,2.687-3.894c.2-.342.385-.688.569-1.037l.269-.527.235-.521a20.767,20.767,0,0,0,.733-2.226c.407-1.526.735-3.083,1.013-4.649s.524-3.144.7-4.714v-.005a.458.458,0,0,1,.911.1Z" transform="translate(-41.926 -26.226)" fill="#42210b"/>
        <path id="Path_767" data-name="Path 767" d="M175.6,5.233a7,7,0,0,1,2.645,2.607,8.022,8.022,0,0,1,.987,3.551A12.216,12.216,0,0,1,178.86,15a15.325,15.325,0,0,1-1.28,3.371c-.141.267-.281.531-.451.788l-.248.386-.266.366c-.357.487-.743.94-1.134,1.388-.789.889-1.626,1.726-2.489,2.534s-1.754,1.583-2.682,2.32c-.469.364-.937.727-1.438,1.059-.239.17-.523.33-.763.477a7.27,7.27,0,0,0-.7.464,5.425,5.425,0,0,0-1.932,2.635,7.284,7.284,0,0,0-.227,3.332,11.427,11.427,0,0,0,.983,3.272,33.1,33.1,0,0,0,1.689,3.049,28.874,28.874,0,0,1,1.693,3.118,11.528,11.528,0,0,1,.607,1.691,7.189,7.189,0,0,1,.28,1.8,8.194,8.194,0,0,1-.83,3.5,9.49,9.49,0,0,1-2.086,2.914.22.22,0,0,1-.3-.32l0,0a9.053,9.053,0,0,0,1.96-2.789A7.733,7.733,0,0,0,170,47.055a6.723,6.723,0,0,0-.277-1.667,10.986,10.986,0,0,0-.595-1.611,28.29,28.29,0,0,0-1.688-3.045,33.48,33.48,0,0,1-1.743-3.089,12.029,12.029,0,0,1-1.062-3.432,7.909,7.909,0,0,1,.224-3.624A6.1,6.1,0,0,1,167,27.615a7.992,7.992,0,0,1,.761-.515c.258-.161.486-.29.725-.461.474-.319.93-.68,1.384-1.038.9-.729,1.774-1.5,2.618-2.3s1.658-1.633,2.418-2.5a13.7,13.7,0,0,0,1.968-2.788,14.508,14.508,0,0,0,1.184-3.2,11.369,11.369,0,0,0,.324-3.364,7.151,7.151,0,0,0-.9-3.159,6.093,6.093,0,0,0-2.325-2.25.458.458,0,1,1,.446-.8Z" transform="translate(-93.435 -2.938)" fill="#42210b"/>
        <path id="Path_768" data-name="Path 768" d="M173.942,19.4c-.193,1.607-.449,3.189-.74,4.773s-.632,3.156-1.059,4.719a21.389,21.389,0,0,1-.783,2.324l-.261.571-.28.54q-.286.537-.592,1.063a30.892,30.892,0,0,1-2.784,3.98c-.511.624-1.025,1.241-1.585,1.838s-1.124,1.152-1.676,1.724a20.368,20.368,0,0,0-2.95,3.66,8.856,8.856,0,0,0-1.333,4.362,10.056,10.056,0,0,0,1.058,4.473l0,0a.336.336,0,0,1-.608.287,10.744,10.744,0,0,1-1.155-4.777,9.578,9.578,0,0,1,1.4-4.723,21.078,21.078,0,0,1,3.03-3.817c.555-.582,1.119-1.15,1.658-1.728s1.038-1.189,1.537-1.805a30.063,30.063,0,0,0,2.687-3.894c.2-.342.385-.688.569-1.037l.269-.527.235-.521a20.774,20.774,0,0,0,.733-2.226c.407-1.526.735-3.083,1.013-4.649s.524-3.144.7-4.714V19.29a.458.458,0,0,1,.911.1Z" transform="translate(-90.405 -10.724)" fill="#42210b"/>
        <path id="Path_769" data-name="Path 769" d="M96.672,12.325c-.621,1.5-1.3,2.949-2,4.394s-1.463,2.867-2.3,4.256A21.5,21.5,0,0,1,90.988,23l-.407.479-.415.444c-.281.293-.566.581-.858.863a30.878,30.878,0,0,1-3.757,3.077c-.661.462-1.323.917-2.024,1.34s-1.394.805-2.081,1.206a20.405,20.405,0,0,0-3.831,2.725,8.862,8.862,0,0,0-2.464,3.838,10.052,10.052,0,0,0-.192,4.592v0a.337.337,0,0,1-.664.111,10.733,10.733,0,0,1,.182-4.911,9.571,9.571,0,0,1,2.63-4.167,21.1,21.1,0,0,1,3.95-2.854c.693-.41,1.389-.8,2.064-1.214s1.321-.864,1.968-1.322a30.116,30.116,0,0,0,3.641-3.021c.282-.276.557-.558.828-.844l.4-.435.368-.438a20.944,20.944,0,0,0,1.308-1.944c.805-1.359,1.542-2.769,2.234-4.2s1.356-2.885,1.953-4.349l0,0a.458.458,0,1,1,.848.346Z" transform="translate(-42.08 -6.639)" fill="#42210b"/>
        <path id="Path_770" data-name="Path 770" d="M103.305,16.8q-1.221.613-2.495,1.123c-.736.293-1.48.582-2.224.821s-1.522.458-2.291.694a21.114,21.114,0,0,0-4.512,1.843,9.579,9.579,0,0,0-3.538,3.43,10.748,10.748,0,0,0-1.333,4.73.336.336,0,0,0,.671.048v0a10.046,10.046,0,0,1,1.27-4.417,8.849,8.849,0,0,1,3.3-3.149,20.392,20.392,0,0,1,4.366-1.745c.761-.228,1.532-.441,2.306-.682s1.531-.532,2.283-.825c.907-.355,1.8-.755,2.677-1.192a3.208,3.208,0,0,1-.478-.673" transform="translate(-49.357 -9.541)" fill="#42210b"/>
        <path id="Path_771" data-name="Path 771" d="M181.565,107.587s2.811,4.219,11.99,2.371" transform="translate(-103.11 -61.098)" fill="none" stroke="#000" stroke-width="1"/>
      </g>
    </g>
    <g id="Group_2" data-name="Group 2" transform="translate(155.597 217.917)">
      <g id="Group_1" data-name="Group 1" transform="translate(0 0)" clip-path="url(#clip-path-4)">
        <path id="Path_1" data-name="Path 1" d="M8.042,11.582c-.355,0-.477-.2-.6-.532L6.57,8.8H2.083L1.21,11.05c-.123.327-.246.532-.587.532a.573.573,0,0,1-.573-.818L3.2,2.772c.327-.859.531-1.227,1.132-1.227.641,0,.8.4,1.145,1.282L8.6,10.764a.566.566,0,0,1-.559.818M6.133,7.7l-1.8-4.623H4.306L2.505,7.7Z" transform="translate(0 -1.08)" fill="#fff"/>
        <path id="Path_2" data-name="Path 2" d="M39.911,1.545H41.85V9.736h4.79v1.737H39.911Z" transform="translate(-27.906 -1.08)" fill="#fff"/>
        <path id="Path_3" data-name="Path 3" d="M77.883,1.545h6.729V3.282h-4.79V5.51h4.27V7.247h-4.27v4.226H77.883Z" transform="translate(-54.456 -1.08)" fill="#fff"/>
        <path id="Path_4" data-name="Path 4" d="M104.391,1.545h6.729V3.282h-4.79V5.51h4.27V7.247h-4.27V9.736h4.79v1.737h-6.729Z" transform="translate(-72.991 -1.08)" fill="#fff"/>
        <path id="Path_5" data-name="Path 5" d="M140.733,11.269a.915.915,0,0,1-1.018-1.018V2.133a1,1,0,0,1,.99-.991.981.981,0,0,1,.977.977l.027,7.389h3.082a.848.848,0,0,1,.881.894.82.82,0,0,1-.853.867Z" transform="translate(-97.69 -0.798)" fill="#fff"/>
        <path id="Path_6" data-name="Path 6" d="M162.081,16.59V10.66c0-.408.3-.785.991-.785s.977.377.977.785v5.93c0,.408-.289.785-.977.785s-.991-.377-.991-.785" transform="translate(-113.329 -6.905)" fill="#fff"/>
        <path id="Path_7" data-name="Path 7" d="M175.524,9.04,172.7,2.422a.905.905,0,0,1,.908-1.28c.55,0,.743.316.95.88l2.848,7.251h.027l2.7-7.251c.207-.564.4-.88.949-.88a.9.9,0,0,1,.908,1.28l-2.7,6.659c-.619,1.527-.949,2.188-1.857,2.188-.935,0-1.238-.661-1.912-2.229" transform="translate(-120.705 -0.798)" fill="#fff"/>
        <path id="Path_8" data-name="Path 8" d="M209.292,11.269a.915.915,0,0,1-1.018-1.018V2.16a.915.915,0,0,1,1.018-1.018h4.279a.848.848,0,0,1,.881.894.82.82,0,0,1-.853.867h-3.385l.014,2.421h2.945a.849.849,0,0,1,.88.895.82.82,0,0,1-.853.867h-2.972l.014,2.422H213.6a.848.848,0,0,1,.88.894.82.82,0,0,1-.853.867Z" transform="translate(-145.627 -0.798)" fill="#fff"/>
        <path id="Path_9" data-name="Path 9" d="M66.241,16.59V10.66c0-.408.3-.785.991-.785s.977.377.977.785v5.93c0,.408-.289.785-.977.785s-.991-.377-.991-.785" transform="translate(-46.316 -6.905)" fill="#fff"/>
        <path id="Path_10" data-name="Path 10" d="M240.909,6.561a2.769,2.769,0,0,1-2.79,2.446H237.04a.255.255,0,1,1,0-.51h1.079a2.246,2.246,0,0,0,2.293-2.19,2.246,2.246,0,0,0-2.293-2.191H237.04a.255.255,0,1,1,0-.51h1.079a2.769,2.769,0,0,1,2.79,2.446h.666c-.062-3.044-1.923-4.909-5.264-4.909h-2.5a.915.915,0,0,0-1.018,1.018v8.09a.915.915,0,0,0,1.018,1.018h2.5c3.267,0,5.118-1.771,5.256-4.708Zm-4.661,1.527V7.54a.255.255,0,0,0-.51,0v.548h-.156a1.782,1.782,0,0,1,0-3.565h.156v.548a.255.255,0,0,0,.51,0V4.523h.537v.548a.255.255,0,0,0,.51,0V4.523h.537v.548a.255.255,0,0,0,.51,0V4.526a1.782,1.782,0,0,1,0,3.56V7.54a.255.255,0,0,0-.51,0v.548H237.3V7.54a.255.255,0,0,0-.51,0v.548Z" transform="translate(-162.768 -0.798)" fill="#fff"/>
        <path id="Path_11" data-name="Path 11" d="M163.533.719A3.047,3.047,0,0,1,161.5,0a.72.72,0,0,0-.719.719.713.713,0,0,0,.174.468.721.721,0,0,0,.08.08l1.1,1.089a.034.034,0,0,0,.024.01.034.034,0,0,0,.025-.01l1.137-1.13a.715.715,0,0,0,.21-.507" transform="translate(-112.422 0)" fill="#fff"/>
        <path id="Path_12" data-name="Path 12" d="M67.692.719a.719.719,0,0,0-1.374-.3.718.718,0,1,0-1.119.845l1.1,1.089a.033.033,0,0,0,.024.01.034.034,0,0,0,.024-.01l1.138-1.13a.728.728,0,0,0,.168-.264.719.719,0,0,0,.042-.244" transform="translate(-45.41 0)" fill="#fff"/>
      </g>
    </g>
  </g>
</svg>
