<svg xmlns="http://www.w3.org/2000/svg" width="62.851" height="87.179" viewBox="0 0 62.851 87.179">
  <g id="my_stories" data-name="my stories" transform="translate(-0.164 -0.164)">
    <g id="Group_2659" data-name="Group 2659">
      <path id="Path_1964" data-name="Path 1964" d="M50.749,119.306s10.1,1.337,11.808,3.416a10.787,10.787,0,0,1,2.228,5.57c.3,1.559,2.971,19.532,3.342,23.246s.817,5.2.149,6.684-4.307,3.936-6.164,4.159a10.262,10.262,0,0,1-4.9-.445c-1.263-.52-5.347-3.119-5.347-3.119L8.342,162.159s9.952-35.871,11.809-38.693,9.506-5.05,14.111-5.793,16.487,1.634,16.487,1.634" transform="translate(-5.605 -78.975)" fill="#67b6a8"/>
      <path id="Path_1966" data-name="Path 1966" d="M152.783,201.109a8.7,8.7,0,0,1,7.65,0" transform="translate(-102.664 -134.561)" fill="none" stroke="#263238" stroke-linecap="round" stroke-linejoin="round" stroke-width="0.5"/>
      <path id="Path_1968" data-name="Path 1968" d="M166.226,168.171c.307-.4.6-.771.863-1.075" transform="translate(-111.697 -112.282)" fill="none" stroke="#263238" stroke-linecap="round" stroke-linejoin="round" stroke-width="1" opacity="0.374"/>
      <path id="Path_1970" data-name="Path 1970" d="M32.857,7.658S27.1,7.247,24.064,9.712s-.575,3.369-.575,3.369-5.1,1.726-5.1,4.6,1.89,1.726,1.89,1.726-4.931,5.917-4.766,8.629,2.63,1.15,2.63,1.15-.575,5.835.739,7.643S23,37.982,23,37.982s-.246,2.958,1.233,2.876a9.86,9.86,0,0,0,3.616-1.479s.411,4.931,2.547,5.753,4.6.575,5.26-.164a9.852,9.852,0,0,0,1.232-1.972s.74,2.383,1.644.657a7.091,7.091,0,0,0,.164-5.341c-.493-.74-3.616-7.478-3.616-8.629s4.684-11.916,4.848-12.245,9.7,1.973,10.026,2.219,5.424,14.053,5.424,14.053a8.907,8.907,0,0,0-1.233,4.684c.246,2.219,1.15,3.452,3.945.657a42.994,42.994,0,0,0,5.506-7.56s.657,4.273,2.548.082-.246-8.629-.986-10.683a18.87,18.87,0,0,0-2.465-4.273s2.383,1.726,2.219-1.232S56.278,4.535,52.826,3.138,44.28,2.07,44.28,2.07,46.087.591,44.115.508,30.638.837,32.857,7.658" transform="translate(-10.424 -0.336)" fill="#3e1204"/>
      <path id="Path_1972" data-name="Path 1972" d="M128.562,70.661c.575,2.917-.765,5.637-2.994,6.077s-4.5-1.568-5.078-4.485.765-5.637,2.994-6.077,4.5,1.568,5.078,4.485" transform="translate(-80.875 -44.427)" fill="#67b6a8"/>
      <path id="Path_1973" data-name="Path 1973" d="M128.562,70.661c.575,2.917-.765,5.637-2.994,6.077s-4.5-1.568-5.078-4.485.765-5.637,2.994-6.077S127.987,67.744,128.562,70.661Z" transform="translate(-80.875 -44.427)" fill="none" stroke="#263238" stroke-linecap="round" stroke-linejoin="round" stroke-width="1"/>
      <path id="Path_1974" data-name="Path 1974" d="M76.6,117.9a112.747,112.747,0,0,0,0,12.031c.371,5.867-.371,7.947.3,8.021s.594.223,1.411-.891,3.788-5.941,4.159-5.718.594,1.411.743,2.451,3.193,6.387,3.193,6.387,2.228-4.307,2.748-5.273a16.163,16.163,0,0,0,1.04-2.451c.52-1.337.891.3,2.3,2.154s3.565,4.753,3.788,3.713-1.485-5.2-1.708-9.432.3-9.878-.149-11.437-5.05-4.011-12.031-4.011S76.6,117.9,76.6,117.9" transform="translate(-51.363 -76.227)" fill="#f08969"/>
      <path id="Path_1976" data-name="Path 1976" d="M86.171,115.763s2.616,8.818,3.953,15.651a57.036,57.036,0,0,0,2.822,10.323,132,132,0,0,0,4.382-12.626,75.317,75.317,0,0,0,2.079-10.62Z" transform="translate(-57.904 -77.788)" fill="#be7559"/>
      <path id="Path_1978" data-name="Path 1978" d="M119.687,128.382s-2.451,2.674-2.674,5.57" transform="translate(-78.628 -86.268)" fill="none" stroke="#263238" stroke-linecap="round" stroke-linejoin="round" stroke-width="1"/>
      <path id="Path_1979" data-name="Path 1979" d="M97.751,161.128c.053.259.1.516.154.769a57.023,57.023,0,0,0,2.822,10.323s2.254-5.517,3.846-10.772c-2.183.655-5,.154-6.823-.32" transform="translate(-65.685 -108.272)" fill="#263238"/>
      <path id="Path_1980" data-name="Path 1980" d="M97.751,161.128c.053.259.1.516.154.769a57.023,57.023,0,0,0,2.822,10.323s2.254-5.517,3.846-10.772C102.39,162.1,99.573,161.6,97.751,161.128Z" transform="translate(-65.685 -108.272)" fill="none" stroke="#263238" stroke-linecap="round" stroke-linejoin="round" stroke-width="1"/>
      <path id="Path_1981" data-name="Path 1981" d="M73.225,41.359,67.883,55.9a86.043,86.043,0,0,0,3.205,8.3c.986,1.726,2.876,2.876,5.013,3.862s9.2,2.712,10.683,2.137,5.013-6.328,5.342-7.643-3.452-15.2-3.78-15.86-15.121-5.342-15.121-5.342" transform="translate(-45.615 -27.792)" fill="#be7559"/>
      <path id="Path_1982" data-name="Path 1982" d="M73.225,41.359,67.883,55.9a86.043,86.043,0,0,0,3.205,8.3c.986,1.726,2.876,2.876,5.013,3.862s9.2,2.712,10.683,2.137,5.013-6.328,5.342-7.643-3.452-15.2-3.78-15.86S73.225,41.359,73.225,41.359Z" transform="translate(-45.615 -27.792)" fill="none" stroke="#070707" stroke-linecap="round" stroke-linejoin="round" stroke-width="1"/>
      <path id="Path_1983" data-name="Path 1983" d="M90.68,84.018a4.378,4.378,0,0,0,4.273-.822" transform="translate(-60.933 -55.904)" fill="none" stroke="#263238" stroke-linecap="round" stroke-linejoin="round" stroke-width="1"/>
      <path id="Path_1984" data-name="Path 1984" d="M85.169,71.823a4.7,4.7,0,0,1,2.219-2.548c1.561-.657,3.78-.164,3.7.411s-1.643.082-2.548.164-3.369,1.972-3.369,1.972" transform="translate(-57.23 -46.34)" fill="#263238"/>
      <path id="Path_1985" data-name="Path 1985" d="M117.235,67.794s.493-1.561,1.4-1.643,3.92.841,3.041.739c-.727-.084-3.478-.189-4.438.9" transform="translate(-78.777 -44.447)" fill="#263238"/>
      <path id="Path_1986" data-name="Path 1986" d="M122,78.256s2.219.411,3.123-.822" transform="translate(-81.976 -52.033)" fill="none" stroke="#263238" stroke-linecap="round" stroke-linejoin="round" stroke-width="1"/>
      <path id="Path_1987" data-name="Path 1987" d="M116.725,71.171a3.27,3.27,0,0,0,.164,2.876" transform="translate(-78.267 -47.824)" fill="none" stroke="#263238" stroke-linecap="round" stroke-linejoin="round" stroke-width="1"/>
      <path id="Path_1988" data-name="Path 1988" d="M120.957,93.216a6.546,6.546,0,0,1-2.219,1.315" transform="translate(-79.787 -62.637)" fill="none" stroke="#263238" stroke-linecap="round" stroke-linejoin="round" stroke-width="1"/>
      <path id="Path_1989" data-name="Path 1989" d="M101.2,98.978A4.842,4.842,0,0,0,104,100.786a11.869,11.869,0,0,0,5.177-.986" transform="translate(-68.004 -66.509)" fill="none" stroke="#263238" stroke-linecap="round" stroke-linejoin="round" stroke-width="1"/>
      <line id="Line_24" data-name="Line 24" x1="1.068" y2="1.233" transform="translate(32.705 31.893)" fill="none" stroke="#263238" stroke-linecap="round" stroke-linejoin="round" stroke-width="1"/>
      <path id="Path_1990" data-name="Path 1990" d="M52.09,46.061s-3.472-6.1-1.229-12.128c2.1-5.637,5.04-6.683,5.076-6.732,0,0-3.9-.053-6.358,5.663s.588,14.319.588,14.319Z" transform="translate(-32.671 -18.278)" fill="#67b6a8"/>
      <path id="Path_1991" data-name="Path 1991" d="M52.09,46.061s-3.472-6.1-1.229-12.128c2.1-5.637,5.04-6.683,5.076-6.732,0,0-3.9-.053-6.358,5.663s.588,14.319.588,14.319Z" transform="translate(-32.671 -18.278)" fill="none" stroke="#263238" stroke-linecap="round" stroke-linejoin="round" stroke-width="1"/>
      <path id="Path_1992" data-name="Path 1992" d="M98.442,232.24c-1.188-1.04-1.56-2.005-2.079-2.079a3.5,3.5,0,0,0-2.525-.074,50.3,50.3,0,0,1-5.875.752l.008-.083H77.721c-6.907,0-15.3-.743-15.3-.743l-1.783,9.878s3.416-.52,9.506-1.114A121.335,121.335,0,0,0,83.5,236.264l3.877-.533a18.246,18.246,0,0,0,5.273.445,6.147,6.147,0,0,0,3.268-1.485s0,.817.371,1.04,3.342-.446,3.862-.594.52-.223.594-1.04-1.114-.817-2.3-1.857" transform="translate(-40.748 -154.477)" fill="#be7559"/>
      <path id="Path_1994" data-name="Path 1994" d="M129.453,207.678s-3.268,2.6-2.971,3.268,1.708,2.377,1.708,2.748-1.857,5.125-.594,6.016a19.82,19.82,0,0,0,10.249,2.748c4.753-.074,7.056-3.788,7.65-4.753s-.446-6.312-1.337-8.838-4.6-3.49-7.873-3.045a34.54,34.54,0,0,0-6.832,1.857" transform="translate(-84.978 -138.233)" fill="#f08969"/>
      <path id="Path_1996" data-name="Path 1996" d="M68.63,109.545a47.771,47.771,0,0,0,3.915,8.836c3.02,5.592,4.586,17.336,6.151,21.7S81.6,145.9,81.6,145.9s2.572-7.941,4.809-15.659,5.33-14.583,4.846-16.3" transform="translate(-46.117 -73.61)" fill="none" stroke="#263238" stroke-linecap="round" stroke-linejoin="round" stroke-width="0.5"/>
      <path id="Path_1997" data-name="Path 1997" d="M127.67,99.246s-2.525,2.971-2.079,3.342.817.668,1.188.445.965-.594.965-.594a23.438,23.438,0,0,0-3.342,5.422c-.891,2.451.074,2.228.3,3.936s2.377,22.429,2.6,25.251.892,4.679,4.085,5.124,7.13-2.3,7.5-3.119a4.512,4.512,0,0,0,.074-3.639c-.594-1.782-10.515-21.853-9.8-23.32,1.188-2.451,5.5-10.249,5.719-10.992s-3.565-2.6-4.233-3.119-2.673.52-2.971,1.263" transform="translate(-83.344 -65.747)" fill="#be7559"/>
      <path id="Path_1999" data-name="Path 1999" d="M135.124,101.009a1.5,1.5,0,0,1,1.634-.445c.965.371,2.525,1.708,2.3,2.3" transform="translate(-90.798 -67.51)" fill="none" stroke="#263238" stroke-linecap="round" stroke-linejoin="round" stroke-width="1"/>
      <path id="Path_2000" data-name="Path 2000" d="M139.879,98.476a3.327,3.327,0,0,1,2.154.669c1.262.817,2.228,1.559,2.154,2" transform="translate(-93.993 -66.165)" fill="none" stroke="#263238" stroke-linecap="round" stroke-linejoin="round" stroke-width="1"/>
      <path id="Path_2001" data-name="Path 2001" d="M135.351,109.117l1.114-.817-.669-.52" transform="translate(-90.95 -72.424)" fill="none" stroke="#263238" stroke-linecap="round" stroke-linejoin="round" stroke-width="1"/>
      <path id="Path_2002" data-name="Path 2002" d="M18.445,127.927s-3.713-.149-7.352,3.713a19.709,19.709,0,0,0-4.456,9.506s-3.862,15.67-5.273,21.983S.1,170.854,3.072,172.042s5.941.743,8.244.743a18.192,18.192,0,0,0,4.233-.52l4.382-11.512.965-4.307a17.289,17.289,0,0,0,3.565-10.472" transform="translate(-0.336 -85.962)" fill="#67b6a8"/>
      <path id="Path_2004" data-name="Path 2004" d="M53.392,178.176c-.151-.423-.3-.8-.449-1.119" transform="translate(-35.576 -118.975)" fill="none" stroke="#263238" stroke-linecap="round" stroke-linejoin="round" stroke-width="1" opacity="0.374"/>
      <path id="Path_2005" data-name="Path 2005" d="M57.941,194.469s-1.106-5.964-2.312-9.957" transform="translate(-37.381 -123.985)" fill="none" stroke="#263238" stroke-linecap="round" stroke-linejoin="round" stroke-width="0.5" opacity="0.499"/>
      <path id="Path_2006" data-name="Path 2006" d="M34.864,215.77s-3.342-3.713-7.278-4.753" transform="translate(-18.537 -141.795)" fill="none" stroke="#263238" stroke-linecap="round" stroke-linejoin="round" stroke-width="0.5"/>
      <path id="Path_2009" data-name="Path 2009" d="M40.1,223.191s-.223,8.689-.445,9.58-.371.965-1.263,1.411-8.318,1.04-9.729,1.04S25.7,232.7,26.809,227.8s3.491-7.724,5.273-7.724,7.724,2.451,7.724,2.451Z" transform="translate(-17.76 -147.88)" fill="#f08969"/>
      <path id="Path_2011" data-name="Path 2011" d="M56.46,85.742c1.176,2.731.437,5.672-1.65,6.571S50.078,91.726,48.9,89s-.437-5.672,1.65-6.571,4.732.587,5.907,3.317" transform="translate(-32.485 -55.21)" fill="#67b6a8"/>
      <path id="Path_2012" data-name="Path 2012" d="M56.46,85.742c1.176,2.731.437,5.672-1.65,6.571S50.078,91.726,48.9,89s-.437-5.672,1.65-6.571S55.284,83.011,56.46,85.742Z" transform="translate(-32.485 -55.21)" fill="none" stroke="#263238" stroke-linecap="round" stroke-linejoin="round" stroke-width="1"/>
      <path id="Path_2013" data-name="Path 2013" d="M55.452,92.42c.779,1.809.289,3.757-1.093,4.353s-3.134-.389-3.913-2.2-.289-3.758,1.093-4.353,3.134.388,3.913,2.2" transform="translate(-33.648 -60.51)" fill="#67b6a8"/>
      <path id="Path_2014" data-name="Path 2014" d="M55.452,92.42c.779,1.809.289,3.757-1.093,4.353s-3.134-.389-3.913-2.2-.289-3.758,1.093-4.353S54.673,90.611,55.452,92.42Z" transform="translate(-33.648 -60.51)" fill="none" stroke="#263238" stroke-linecap="round" stroke-linejoin="round" stroke-width="1"/>
    </g>
  </g>
</svg>
