<svg id="myself_recording" data-name="myself recording" xmlns="http://www.w3.org/2000/svg" xmlns:xlink="http://www.w3.org/1999/xlink" width="64.076" height="42.895" viewBox="0 0 64.076 42.895">
  <defs>
    <clipPath id="clip-path">
      <rect id="Rectangle_2492" data-name="Rectangle 2492" width="64.076" height="42.895" fill="#67b6a8"/>
    </clipPath>
  </defs>
  <g id="Group_2425" data-name="Group 2425" clip-path="url(#clip-path)">
    <path id="Path_1560" data-name="Path 1560" d="M30.326,24.51A1.411,1.411,0,0,0,31.735,23.1v-.261h-.683a.427.427,0,0,1,0-.854h.683V21.7h-.683a.427.427,0,0,1,0-.854h.683v-.287h-.683a.427.427,0,0,1,0-.854h.683v-.261a1.409,1.409,0,1,0-2.819,0V19.7H29.6a.427.427,0,1,1,0,.854h-.683v.287H29.6a.427.427,0,1,1,0,.854h-.683v.287H29.6a.427.427,0,1,1,0,.854h-.683V23.1a1.411,1.411,0,0,0,1.41,1.409" transform="translate(-21.136 -13.181)" fill="#67b6a8"/>
    <path id="Path_1561" data-name="Path 1561" d="M17.215,15.974a9.2,9.2,0,1,0-1.7,2.189l3.282.708ZM6.926,7.949a2.264,2.264,0,0,1,4.527,0v3.659a2.264,2.264,0,0,1-4.527,0Zm2.691,7.258v1.5h.854a.427.427,0,0,1,0,.854H7.908a.427.427,0,0,1,0-.854h.854v-1.5a3.71,3.71,0,0,1-3.278-3.68.427.427,0,0,1,.854,0,2.851,2.851,0,1,0,5.7,0,.427.427,0,0,1,.854,0,3.71,3.71,0,0,1-3.278,3.68" transform="translate(0 -1.689)" fill="#67b6a8"/>
    <path id="Path_1562" data-name="Path 1562" d="M55.671,40.285c.717-5.777,2.147-22.8-.845-23.762-1.637-.528-5.425-.478-9.379-.323-.859-.274-1.761-.478-2.568-.755-.256-.088-.477-.153-.676-.2a.809.809,0,0,1-.225-.118c-.406-.389-1.023-2.6-1.473-4.317.08-.282.159-.567.232-.854l.006-.018a.2.2,0,0,0,.218-.167l.027-.184c.02,0,.038,0,.059,0a.852.852,0,0,0,.645-.443,1.759,1.759,0,0,0,.2-.782,3.831,3.831,0,0,0-.2-1.458,2.1,2.1,0,0,1,.742-1.177c.23-.126.541-.333.418-.566a9.279,9.279,0,0,1-1.368-2.6A3.513,3.513,0,0,0,39.532.471a7.551,7.551,0,0,0-2.177-.04c-1.05,0-2.068-.368-3.116-.427-2.562-.144-4.452,2.863-5.481,4.84-.525,1.008,1.484.671,2.24.357-.222.433-.575,1.537-.089,1.524a2,2,0,0,0,.351-.045,10.354,10.354,0,0,0,1.206,5.854,8.835,8.835,0,0,0,.808,1.1c.09.441.236.873.316,1.316a3.188,3.188,0,0,0,.266,1.26c-.082.02-.163.04-.239.056a13.529,13.529,0,0,0-2.242.534l-.074-.257a2.037,2.037,0,0,0,.224-.393c.119-.283-.1-.771-.352-.592-.041.03-.085.065-.127.1l-1.064-3.7a.557.557,0,0,0-.689-.381L25.17,12.759a.557.557,0,0,0-.381.69l.828,2.877a1.959,1.959,0,0,0-.531,1.72,16.856,16.856,0,0,1,.577,2.125,7.2,7.2,0,0,1-.651,1.965l-.1.255a1.019,1.019,0,0,0-.885.14c-.1.1.129.794-.139,1.352-.181.376-.823.507-1.044,1.033C21.3,28.6,19.133,35.376,21.521,37.059a3.705,3.705,0,0,0,3.55.049l.009,0a4.771,4.771,0,0,0,2.246-2.122,35.3,35.3,0,0,0,2.376-3.9,54.1,54.1,0,0,1,.081,7.4c-.178.126-.352.245-.516.352-.588.386-1.421.808-1.515,1.057a.379.379,0,0,0,.116.385H14.049v2.61H63.875v-2.61ZM33.8,15.4c-.027-.2-.033-.384-.075-.58-.074-.343-.193-.676-.289-1.014a4.525,4.525,0,0,0,1.672,1.113c.015.555-.031.938-.169.98-.2.062-.531.161-.86.249A1.449,1.449,0,0,1,33.8,15.4M29.685,39.8q-.02.238-.043.481H28.611c.165-.078.592-.266,1.074-.481" transform="translate(-5.064 0)" fill="#67b6a8"/>
  </g>
</svg>
