<svg width="447" height="361" viewBox="0 0 447 361" fill="none" xmlns="http://www.w3.org/2000/svg">
<g clip-path="url(#clip0_107_2664)">
<path d="M14 197.09C14.34 132.46 14.34 67.46 14.34 2.45996C22.34 2.45996 29.34 2.45996 37.43 2.45996" stroke="#263238" stroke-linecap="round" stroke-linejoin="round"/>
<path d="M14 327.41C14.34 317.41 14.34 307.41 14 297.67" stroke="#263238" stroke-linecap="round" stroke-linejoin="round"/>
<path d="M13.9702 323.1V313.05" stroke="#263238" stroke-linecap="round" stroke-linejoin="round"/>
<path d="M97.68 2.40991H339.53V358.41H14" stroke="#263238" stroke-linecap="round" stroke-linejoin="round"/>
<path d="M35.2402 2.54004H98.5302" stroke="#263238" stroke-linecap="round" stroke-linejoin="round"/>
<path d="M327.29 14.6201H26.2102V346.16H327.29V14.6201Z" stroke="#263238" stroke-linecap="round" stroke-linejoin="round"/>
<path d="M313.28 37.8901V218.65H40.2102V128.33" stroke="#263238" stroke-linecap="round" stroke-linejoin="round"/>
<path d="M40.2102 127.49V27.4299H313.28" stroke="#263238" stroke-linecap="round" stroke-linejoin="round"/>
<path d="M267.17 234.76H327.29" stroke="#263238" stroke-linecap="round" stroke-linejoin="round"/>
<path d="M245.79 234.76H254.3" stroke="#263238" stroke-linecap="round" stroke-linejoin="round"/>
<path d="M26.2102 234.76H235.64" stroke="#263238" stroke-linecap="round" stroke-linejoin="round"/>
<path d="M161.62 218.66V210H186.79V215H176.79V218.75" stroke="#263238" stroke-linecap="round" stroke-linejoin="round"/>
<path d="M49.6902 103.12H59.1802V91.49C59.1491 90.774 59.2633 90.059 59.5159 89.3883C59.7684 88.7176 60.1542 88.1049 60.6499 87.5872C61.1455 87.0696 61.7409 86.6576 62.4 86.3762C63.0592 86.0947 63.7685 85.9496 64.4852 85.9496C65.2019 85.9496 65.9112 86.0947 66.5703 86.3762C67.2295 86.6576 67.8248 87.0696 68.3205 87.5872C68.8162 88.1049 69.2019 88.7176 69.4545 89.3883C69.7071 90.059 69.8213 90.774 69.7902 91.49V124.62C69.7902 126.137 70.3928 127.592 71.4655 128.665C72.5382 129.737 73.9932 130.34 75.5102 130.34C77.0272 130.34 78.4821 129.737 79.5548 128.665C80.6275 127.592 81.2302 126.137 81.2302 124.62V64.62C81.2984 62.8237 82.0599 61.1236 83.3549 59.8769C84.6499 58.6301 86.3776 57.9336 88.1752 57.9336C89.9728 57.9336 91.7005 58.6301 92.9955 59.8769C94.2905 61.1236 95.052 62.8237 95.1202 64.62V145C95.1436 146.696 95.8251 148.317 97.021 149.52C98.2168 150.723 99.8334 151.415 101.529 151.449C103.226 151.482 104.868 150.856 106.111 149.701C107.354 148.546 108.099 146.954 108.19 145.26V145.26V46.93C108.151 45.7793 108.344 44.6324 108.757 43.5577C109.17 42.4831 109.795 41.5025 110.596 40.6746C111.396 39.8467 112.354 39.1882 113.414 38.7386C114.474 38.2889 115.614 38.0571 116.765 38.0571C117.917 38.0571 119.056 38.2889 120.116 38.7386C121.176 39.1882 122.135 39.8467 122.935 40.6746C123.735 41.5025 124.36 42.4831 124.774 43.5577C125.187 44.6324 125.379 45.7793 125.34 46.93V144.55C125.408 146.346 126.17 148.046 127.465 149.293C128.76 150.54 130.488 151.236 132.285 151.236C134.083 151.236 135.81 150.54 137.105 149.293C138.4 148.046 139.162 146.346 139.23 144.55V66.76C139.215 65.6871 139.411 64.6217 139.808 63.6247C140.205 62.6277 140.794 61.7186 141.542 60.9493C143.052 59.3955 145.118 58.5055 147.285 58.475C149.452 58.4445 151.542 59.276 153.096 60.7866C153.865 61.5346 154.48 62.4268 154.904 63.4122C155.329 64.3977 155.555 65.4571 155.57 66.53V124.14C155.634 125.722 156.307 127.217 157.449 128.314C158.591 129.41 160.112 130.022 161.695 130.022C163.278 130.022 164.8 129.41 165.941 128.314C167.083 127.217 167.756 125.722 167.82 124.14V93C167.788 92.2121 167.915 91.4257 168.194 90.6881C168.473 89.9506 168.898 89.277 169.444 88.708C169.99 88.139 170.645 87.6862 171.371 87.3769C172.096 87.0676 172.877 86.9082 173.665 86.9082C174.454 86.9082 175.234 87.0676 175.96 87.3769C176.685 87.6862 177.34 88.139 177.886 88.708C178.432 89.277 178.858 89.9506 179.137 90.6881C179.416 91.4257 179.543 92.2121 179.51 93V103.18H190.35" stroke="#F08969" stroke-width="2" stroke-miterlimit="10"/>
<path d="M124.64 55C117.14 54.998 109.808 57.2203 103.57 61.3858C97.3331 65.5513 92.4712 71.4729 89.5996 78.4017C86.728 85.3305 85.9756 92.9553 87.4376 100.312C88.8996 107.668 92.5104 114.426 97.8132 119.73C103.116 125.034 109.873 128.647 117.229 130.111C124.585 131.575 132.21 130.824 139.139 127.954C146.069 125.085 151.992 120.224 156.159 113.988C160.326 107.752 162.55 100.42 162.55 92.92C162.548 82.8655 158.553 73.2235 151.444 66.113C144.336 59.0025 134.695 55.0053 124.64 55ZM124.64 123.24C120.657 123.241 116.712 122.458 113.032 120.934C109.351 119.41 106.007 117.176 103.191 114.359C100.374 111.543 98.14 108.199 96.6163 104.518C95.0925 100.838 94.3089 96.8934 94.3102 92.91C94.2971 86.1738 96.5514 79.6292 100.71 74.33L143.21 116.83C137.915 120.997 131.369 123.256 124.63 123.24H124.64ZM148.56 111.49L106.06 69C111.358 64.8376 117.903 62.5797 124.64 62.59C128.624 62.5861 132.57 63.367 136.252 64.8882C139.934 66.4094 143.28 68.6411 146.099 71.4558C148.918 74.2704 151.156 77.613 152.683 81.2924C154.21 84.9719 154.998 88.9162 155 92.9C155.021 99.6391 152.762 106.187 148.59 111.48" fill="#D94E69"/>
<path d="M237 163.25C237.8 158.85 239.58 155.72 242.44 154.25C274.97 138.04 344.38 134.95 387.15 140.33C426.61 145.33 432.66 253.59 428.65 353.92H275.47C275.47 353.92 276.41 266.53 257.09 232.09C252.83 224.5 243.28 205.33 242.09 196.5" fill="#67B6A8"/>
<g opacity="0.2">
<g opacity="0.2">
<g opacity="0.2">
<g opacity="0.2">
<path opacity="0.2" d="M428.62 354H275.47C275.47 354 275.67 335.48 274.02 312.14C274.02 312.14 269.76 295.5 284.29 286.8C297.41 278.92 330.52 275.03 338.95 267.92C348.65 259.73 351.17 237.56 366.28 200.25C375.54 177.36 419.05 185.25 419.05 185.25C429.72 227.07 431.05 292.04 428.62 353.98" fill="black"/>
</g>
</g>
</g>
</g>
<path d="M76.9602 319.04H15.0602C14.5742 319.04 14.1802 319.434 14.1802 319.92V322.9C14.1802 323.386 14.5742 323.78 15.0602 323.78H76.9602C77.4462 323.78 77.8402 323.386 77.8402 322.9V319.92C77.8402 319.434 77.4462 319.04 76.9602 319.04Z" fill="#231F20"/>
<path d="M24.1602 324.74H15.1402C14.61 324.74 14.1802 325.17 14.1802 325.7V325.9C14.1802 326.43 14.61 326.86 15.1402 326.86H24.1602C24.6904 326.86 25.1202 326.43 25.1202 325.9V325.7C25.1202 325.17 24.6904 324.74 24.1602 324.74Z" fill="#231F20"/>
<path d="M76.9602 320.97H15.0602C14.5742 320.97 14.1802 321.364 14.1802 321.85V324.83C14.1802 325.316 14.5742 325.71 15.0602 325.71H76.9602C77.4462 325.71 77.8402 325.316 77.8402 324.83V321.85C77.8402 321.364 77.4462 320.97 76.9602 320.97Z" fill="#315A53"/>
<path d="M133.91 306.64C133.91 306.64 113.1 303.64 111.54 303.22C109.98 302.8 94.7501 287.93 89.5401 287.41C83.7701 286.85 66.3301 301.91 65.2101 303.72C64.6004 304.716 64.3964 305.909 64.6402 307.051C64.8839 308.194 65.5568 309.199 66.5201 309.86C65.2301 314.49 70.8701 317.68 70.8701 317.68C69.8701 321.74 76.6301 324.21 76.6301 324.21C78.8901 332.59 94.6901 325.75 94.6901 325.75C100.036 326.97 105.542 327.325 111 326.8L132.45 332.24C136.52 317.24 133.86 306.64 133.86 306.64" fill="#FC9C76"/>
<path d="M90.7501 289.5C90.7501 289.5 88.8701 292.71 89.5901 294.24C90.3101 295.77 92.8801 296.01 92.3101 298.38C91.7401 300.75 91.1701 302.16 94.4901 304.7C97.8101 307.24 92.1801 311.9 94.8201 313.65" stroke="#263238" stroke-linecap="round" stroke-linejoin="round"/>
<path d="M82.7602 303.73C82.7602 303.73 72.2202 312.66 71.1602 317" stroke="#263238" stroke-linecap="round" stroke-linejoin="round"/>
<path d="M86.6502 311.65C86.6502 311.65 77.1802 319.92 76.9202 323.53" stroke="#263238" stroke-linecap="round" stroke-linejoin="round"/>
<path d="M66.8201 309.18C66.8201 309.18 74.0801 300.36 82.2501 297.18" stroke="#263238" stroke-linecap="round" stroke-linejoin="round"/>
<path d="M92.14 319.24C90.2108 321.363 87.6208 322.773 84.79 323.24" stroke="#263238" stroke-linecap="round" stroke-linejoin="round"/>
<path d="M275.47 354C275.47 354 276.41 266.61 257.09 232.17C252.83 224.57 243.28 205.41 242.09 196.58" stroke="#529388" stroke-miterlimit="10"/>
<path d="M342.8 141.08C342.8 141.08 336 170.39 307.8 170.52C287.42 170.63 289 150 289 150C290.134 148.805 290.888 147.302 291.17 145.679C291.451 144.056 291.246 142.387 290.58 140.88C290.266 140.199 289.852 139.568 289.35 139.01C287.084 136.736 284.317 135.023 281.27 134.01C279.461 133.327 277.607 132.772 275.72 132.35C275.72 132.35 277.72 126.45 276.67 125.25C262.11 109.93 292.3 81.1001 322.6 89.2501C322.6 89.2501 305.98 110.31 342.81 141.07" fill="#FC9C76"/>
<path opacity="0.3" d="M289.35 139C287.082 136.723 284.311 135.011 281.26 134C288.08 129.14 295.58 124.55 295.58 124.55C295.695 127.272 295.194 129.985 294.115 132.487C293.037 134.988 291.408 137.215 289.35 139Z" fill="#263238"/>
<path d="M328.44 73.3499C331.82 28.2499 307.86 12.6699 293.19 9.10994C269.69 3.41994 243.24 22.2399 240.47 47.4299C237.7 72.6199 244.47 77.1999 245.68 87.1399C246.55 94.1399 242.8 98.1399 250.23 114.86C255.12 125.86 263.16 143.48 282.29 137.12C288.145 135.128 293.689 132.32 298.76 128.78" fill="#FC9C76"/>
<path opacity="0.59" d="M328.44 73.3499C331.82 28.2499 307.86 12.6699 293.19 9.10994C269.69 3.41994 243.24 22.2399 240.47 47.4299C237.7 72.6199 244.47 77.1999 245.68 87.1399C246.55 94.1399 242.8 98.1399 250.23 114.86C255.12 125.86 263.16 143.48 282.29 137.12C288.145 135.128 293.689 132.32 298.76 128.78" stroke="#AF5952" stroke-linecap="round" stroke-linejoin="round"/>
<path d="M269 68.12C269 68.12 276.69 63.82 282.54 72.72" stroke="#AF5952" stroke-linecap="round" stroke-linejoin="round"/>
<path d="M240.42 67.37C240.42 67.37 248.66 64.21 253.24 69.82" stroke="#AF5952" stroke-linecap="round" stroke-linejoin="round"/>
<path d="M257.34 81.8201C257.34 81.8201 259.25 89.3201 256.57 91.2201C253.89 93.1201 248.88 90.7601 251.19 96.6201C253.5 102.48 260.52 101.75 260.52 101.75" stroke="#AF5952" stroke-linecap="round" stroke-linejoin="round"/>
<path d="M272.69 81.4799C273 83.4799 274.17 84.9999 275.28 84.8199C276.39 84.6399 277.05 82.8699 276.74 80.8199C276.43 78.7699 275.26 77.2999 274.14 77.4699C273.02 77.6399 272.37 79.4699 272.69 81.4699" fill="#263238"/>
<path d="M272.69 81.4799C273 83.4799 274.17 84.9999 275.28 84.8199C276.39 84.6399 277.05 82.8699 276.74 80.8199C276.43 78.7699 275.26 77.2999 274.14 77.4699C273.02 77.6399 272.37 79.4599 272.69 81.4799Z" stroke="#263238" stroke-linecap="round" stroke-linejoin="round"/>
<path d="M249.08 83.0999C249.39 85.0999 250.56 86.6199 251.67 86.4499C252.78 86.2799 253.44 84.4499 253.13 82.4499C252.82 80.4499 251.65 78.9299 250.53 79.1099C249.41 79.2899 248.76 81.1099 249.08 83.1099" fill="#263238"/>
<path d="M249.08 83.0999C249.39 85.0999 250.56 86.6199 251.67 86.4499C252.78 86.2799 253.44 84.4499 253.13 82.4499C252.82 80.4499 251.65 78.9299 250.53 79.1099C249.41 79.2899 248.76 81.0799 249.08 83.0999Z" stroke="#263238" stroke-linecap="round" stroke-linejoin="round"/>
<path d="M276.41 105.38C276.41 105.38 268.28 111.7 259.63 110.84" stroke="#AF5952" stroke-linecap="round" stroke-linejoin="round"/>
<path d="M275.05 107.3C275.05 107.3 275.05 113.88 269.16 115.44C263.27 117 262 111 262 111" stroke="#AF5952" stroke-linecap="round" stroke-linejoin="round"/>
<path d="M315 8.09002C315 8.09002 305.75 -4.55998 276.38 1.77002C247.01 8.10002 236.75 14.44 232 23.54C227.25 32.64 219.34 61.72 226.86 68.15C234.38 74.58 239.8 72.72 239.8 72.72C239.8 72.72 228.8 71.8 228.8 63.49C228.8 63.49 234.2 69.38 241 70.79C240.42 65.7421 240.21 60.6586 240.37 55.58C240.67 44.7 248.84 38.85 255.52 41.58C255.52 41.58 260.17 35.49 263.88 39.84C268.88 45.73 260.17 75.33 281.02 72.76C281.02 72.76 269.13 69.85 274.67 49.49C274.67 49.49 276.37 71.64 292.1 72.76C297.75 73.15 299.66 79.95 300.2 83.76L305 81.82C306.19 79.91 311.52 76.87 313.94 78.53C323.43 85.06 316.21 92.98 315.47 101.78L318.88 107.3C327.93 99.7 347.96 65.08 336.49 41.3C338.065 41.9626 339.461 42.99 340.561 44.2974C341.662 45.6048 342.436 47.1549 342.82 48.82C342.82 48.82 344.23 17.17 315 8.09002Z" fill="#5F4C46"/>
<path d="M305 84.8001C305 84.8001 310.63 68.6901 319.54 71.0001C328.45 73.3101 325.41 92.0001 319.06 98.9301C312.71 105.86 307.46 100.74 307.46 100.74" fill="#FC9C76"/>
<path d="M305 84.8001C305 84.8001 310.63 68.6901 319.54 71.0001C328.45 73.3101 325.41 92.0001 319.06 98.9301C312.71 105.86 307.46 100.74 307.46 100.74" stroke="#5F4C46" stroke-linecap="round" stroke-linejoin="round"/>
<g opacity="0.2">
<g opacity="0.2">
<g opacity="0.2">
<g opacity="0.2">
<path opacity="0.2" d="M262 25.55C272.82 20 279 34.76 284.65 50.72C290.3 66.68 301.2 68.15 301.2 68.15" stroke="white" stroke-linecap="round" stroke-linejoin="round"/>
<path opacity="0.2" d="M255.56 30.91C255.56 30.91 247.56 19.97 239.81 26.77C232.06 33.57 224.64 57.77 235.58 63.13" stroke="white" stroke-linecap="round" stroke-linejoin="round"/>
<path opacity="0.2" d="M271.64 17.5199C283.77 13.1699 293.22 11.9499 300.32 32.6699C307.42 53.3899 313.32 64.8799 326.63 68.1499" stroke="white" stroke-linecap="round" stroke-linejoin="round"/>
<path opacity="0.2" d="M301.21 10.22C312.44 13.47 322.89 42.07 332.45 46.69" stroke="white" stroke-linecap="round" stroke-linejoin="round"/>
<path opacity="0.2" d="M264.84 15.6099C264.84 15.6099 261.29 8.66988 252.13 12.5399" stroke="white" stroke-linecap="round" stroke-linejoin="round"/>
</g>
</g>
</g>
</g>
<path d="M249.27 152.1C237.04 157.19 232.99 164.88 229.17 186.85C226.78 200.55 196.17 284.35 196.17 284.35C196.17 284.35 158.89 286.67 146.01 291.25C140.1 293.35 137.44 300.16 137.44 300.16L129.74 301.66C127.702 307.336 127.02 313.41 127.747 319.397C128.475 325.384 130.592 331.117 133.93 336.14L143.23 335.08C147.85 348.19 230.55 320.67 246.09 302.5C262.03 283.85 306.09 173 258.89 148.77" fill="#67B6A8"/>
<path d="M227.67 279.53C227.67 279.53 237.54 278.44 242.57 284.35" stroke="#529388" stroke-linecap="round" stroke-linejoin="round"/>
<path d="M235.12 202.46C235.12 202.46 249.66 247.4 267.7 256" stroke="#529388" stroke-linecap="round" stroke-linejoin="round"/>
<path d="M137.43 300.16C140.743 305.151 142.738 310.9 143.23 316.87" stroke="#529388" stroke-linecap="round" stroke-linejoin="round"/>
<path d="M387.55 147.62C375.31 152.71 371.27 160.39 367.44 182.37C365.06 196.07 365.95 275.05 365.95 275.05C365.95 275.05 297.17 282.19 284.29 286.77C278.37 288.87 275.72 295.68 275.72 295.68L268.02 297.17C265.983 302.848 265.301 308.923 266.028 314.912C266.756 320.9 268.873 326.635 272.21 331.66L281.51 330.6C286.12 343.7 399.21 340.67 414.74 322.5C430.69 303.85 444.4 168.5 397.17 144.28" fill="#67B6A8"/>
<path d="M346.25 200.93C346.25 200.93 317 245.27 286.83 256.21" stroke="#529388" stroke-linecap="round" stroke-linejoin="round"/>
<path d="M366 275.05C366 275.05 375.87 273.95 380.9 279.87" stroke="#529388" stroke-linecap="round" stroke-linejoin="round"/>
<path d="M373.4 198C373.4 198 387.94 242.93 405.97 251.51" stroke="#529388" stroke-linecap="round" stroke-linejoin="round"/>
<path d="M275.71 295.68C279.019 300.672 281.011 306.421 281.5 312.39" stroke="#529388" stroke-linecap="round" stroke-linejoin="round"/>
<path d="M268.67 301C268.67 301 247.67 302.55 246.09 302.52C244.51 302.49 226.38 291.25 221.09 291.89C215.34 292.59 201.59 311.08 200.89 313.1C200.514 314.206 200.576 315.415 201.063 316.477C201.551 317.539 202.426 318.374 203.51 318.81C203.26 323.61 209.45 325.49 209.45 325.49C209.37 329.67 216.5 330.61 216.5 330.61C220.5 338.3 234.5 328.19 234.5 328.19C240.009 328.22 245.486 327.359 250.72 325.64L272.84 326.29C273.54 310.77 268.65 301 268.65 301" fill="#FC9C76"/>
<path d="M222.64 294.36C222.64 294.36 221.5 297.9 222.54 299.24C223.58 300.58 226.14 300.24 226.09 302.69C226.04 305.14 225.8 306.63 229.6 308.38C233.4 310.13 228.91 315.92 231.87 317.04" stroke="#263238" stroke-linecap="round" stroke-linejoin="round"/>
<path d="M217.93 310C217.93 310 209.59 321 209.5 325.48" stroke="#263238" stroke-linecap="round" stroke-linejoin="round"/>
<path d="M223.45 316.87C223.45 316.87 216 327 216.55 330.59" stroke="#263238" stroke-linecap="round" stroke-linejoin="round"/>
<path d="M203.57 318.78C203.57 318.78 208.73 308.59 216.01 303.66" stroke="#263238" stroke-linecap="round" stroke-linejoin="round"/>
<path d="M230.46 323.09C229.037 325.576 226.812 327.504 224.15 328.56" stroke="#263238" stroke-linecap="round" stroke-linejoin="round"/>
<path d="M228.32 325.84C228.32 325.84 237.32 326.02 234.51 328.17" stroke="#263238" stroke-linecap="round" stroke-linejoin="round"/>
<path d="M439.92 327.51H6.57012C5.06011 327.51 3.61181 328.109 2.54314 329.176C1.47447 330.243 0.872766 331.69 0.870117 333.2V348.15C1.17012 351.903 1.48345 355.66 1.81012 359.42H445.61V333.2C445.61 331.691 445.011 330.244 443.944 329.177C442.876 328.109 441.429 327.51 439.92 327.51Z" fill="white"/>
<path d="M445.61 359.42C445.31 350.42 446.31 340.42 445.31 331.42C444.571 330.221 443.543 329.226 442.32 328.528C441.097 327.829 439.718 327.448 438.31 327.42C294.31 327.42 149.31 327.42 5.2002 327.64" stroke="#263238" stroke-linecap="round" stroke-linejoin="round"/>
<path d="M26.5101 322.51H16.6901C16.204 322.51 15.8101 322.904 15.8101 323.39C15.8101 323.876 16.204 324.27 16.6901 324.27H26.5101C26.9961 324.27 27.3901 323.876 27.3901 323.39C27.3901 322.904 26.9961 322.51 26.5101 322.51Z" fill="#29B473"/>
</g>
<defs>
<clipPath id="clip0_107_2664">
<rect width="446.48" height="360.3" fill="white"/>
</clipPath>
</defs>
</svg>
