<svg id="someone_else-recording" data-name="someone else-recording" xmlns="http://www.w3.org/2000/svg" xmlns:xlink="http://www.w3.org/1999/xlink" width="67.856" height="51.94" viewBox="0 0 67.856 51.94">
  <defs>
    <clipPath id="clip-path">
      <rect id="Rectangle_2491" data-name="Rectangle 2491" width="67.856" height="51.94" fill="#f08969"/>
    </clipPath>
  </defs>
  <g id="Group_2423" data-name="Group 2423" clip-path="url(#clip-path)">
    <path id="Path_1558" data-name="Path 1558" d="M227.619,76.29a.383.383,0,0,0,.033-.031,1.033,1.033,0,0,0-.016-1.445l-.449-.449a1.033,1.033,0,0,0-1.445-.016.366.366,0,0,0-.031.034l-1.193,1.359,1.742,1.742Z" transform="translate(-188.914 -62.317)" fill="#f08969"/>
    <path id="Path_1559" data-name="Path 1559" d="M67.856,24.28V22.595H65.511a59.6,59.6,0,0,0,1.035-8.617c-.16-.435-2.207-.657-4.782-.72a5.473,5.473,0,0,0-.408-.736A25.191,25.191,0,0,1,59.219,9.3c-.882-1.774-.916-3.116-1.56-4.989C56.832,1.906,55.948.7,53.525.7c-.412,0-.791.019-1.139.053C52.358.735,52.33.716,52.3.7c-.134-.075-.544-.019-.428.118h0c-2.021.314-2.82,1.165-2.952,1.477-.333.786-.186,1.336.527,1.614-.013.1-.024.213-.032.326a.081.081,0,0,0-.038.158l.03.011c-.01.238-.01.487,0,.735a.072.072,0,0,0-.015.078c.005.011.012.023.018.034.02.647.073,1.276.074,1.678,0,.385,1.016,2.4,1.483,2.375a2.131,2.131,0,0,0,1.18-.526,1.658,1.658,0,0,1-.9,1.7,20.045,20.045,0,0,1-2.6.915.878.878,0,0,0-.532.24c-1.778.448-2.686,3.045-3.042,3.76a25.255,25.255,0,0,0-1.142,2.668,11.566,11.566,0,0,1-.958-2.87,10.751,10.751,0,0,0-.32-1.711,4.615,4.615,0,0,0-.7-.921,7.493,7.493,0,0,0-2.732-1.463c-.694,0,.7.655,1.3,1.289.173.183-.164.235-.6.52a.573.573,0,0,0-.212.62c.088.46.55.73.854,1.085a4.112,4.112,0,0,1,.587,2.657c.031,1.466.422,5.132,1.726,5.332H37.341a.3.3,0,0,0-.263-.422h-.894V16.263l1.163-1.1L35.6,13.423,33.48,15.673a.437.437,0,0,0,.023.593l-.033-.033-.576.576a.5.5,0,0,0,0,.7l.181.181a2.184,2.184,0,0,0-.738,1.105,3.326,3.326,0,0,0,.247,1.613,1.564,1.564,0,0,1-.129,1.33c-.022.037-.045.074-.068.11-.106-.116-.216-.229-.326-.338l-.454-.452a2.545,2.545,0,0,1,.082-.457,3.324,3.324,0,0,0,.247-1.613,2.181,2.181,0,0,0-.738-1.105l.181-.181a.5.5,0,0,0,0-.7l-.576-.576-.534.534.5-.5a.436.436,0,0,0,.022-.593l-2.124-2.249-1.193-1.359a.385.385,0,0,0-.031-.033A1.033,1.033,0,0,0,26,12.24l-.449.449a1.033,1.033,0,0,0-.016,1.445.382.382,0,0,0,.033.031l1.359,1.193,1.163,1.1v3.6a1.832,1.832,0,0,1-.442,0c-.209-.027-.376-.323-.606-.353-2.083-.276-4.809-.694-4.854-.947-.352-1.963-2.69-8.081-4.593-9.273a19.111,19.111,0,0,0-2.4-.788c-.415-.133-.54.023-.671-.365a2.4,2.4,0,0,0,.736-1.017,4.483,4.483,0,0,0,.171-1.051,1.676,1.676,0,0,0,.535-1.305,1.717,1.717,0,0,0-.481-1.258c0-.452-.01-.9-.034-1.22.23.05.445.174.677.229.285.068.674-.051.684-.33.009-.232-.241-.377-.476-.466a.186.186,0,0,0,.185-.185.443.443,0,0,0-.214-.288,4.231,4.231,0,0,0-1.936-.9.75.75,0,0,0,.4-.12A.8.8,0,0,0,14.09.008a7.836,7.836,0,0,0-1.671.156.56.56,0,0,0-.236-.09,1.605,1.605,0,0,0-1.006.352,3.344,3.344,0,0,0-.742.255c-.387.238-.813.531-.866.966-.643.51-1.5,1.016-.448,1.516a4.942,4.942,0,0,1,.144.961,1.888,1.888,0,0,0-.273,1.007c0,.823.462,1.49,1.032,1.49a.743.743,0,0,0,.3-.066c-.079.579-.172,1.2-.277,1.72a.725.725,0,0,1-.364.389,9.86,9.86,0,0,0-2.405.988h0A3.832,3.832,0,0,0,4.706,12.72c-2.023.14-3.737.391-4.294.831-1.647,1.3,2.08,20.625,3.64,21.752.768.555,3.355,1.1,5.972,1.488V46.7c-.825.255-1.649.514-2.462.806a.555.555,0,0,0-.106.981,1.03,1.03,0,1,0,.7-.09c.617-.215,1.24-.415,1.864-.609v4.069h.808v-4.32c.78-.241,1.559-.487,2.329-.759,1.548.654,3.143,1.216,4.748,1.722a1.03,1.03,0,1,0,1.225.17.535.535,0,0,0-.161-.928c-1.4-.425-2.8-.882-4.168-1.409v-2.1h-.759v-6.95a17.266,17.266,0,0,0,2.209.1,20.413,20.413,0,0,0,5.024-1.4c.16,1.909.4,7.329.575,10.436-.145.039-.234.085-.239.138a4.663,4.663,0,0,0,0,1.394,1.028,1.028,0,0,0,.4.141c-.295,1.247-.61,2.627-.4,2.893,1.063.432,6.421.35,6.755-.013A.745.745,0,0,0,28,50.387c1.914.106,4.629.134,4.879-.138,0-.758-1.049-.949-1.591-1.21a3.493,3.493,0,0,1-1.823-1.564,2.827,2.827,0,0,0,.616-.193s.072-.9.112-1.3c.007-.063-.088-.115-.252-.156A121.637,121.637,0,0,0,30.06,32.27a4.817,4.817,0,0,0-.77-2.511,3.823,3.823,0,0,0-2.226-1.1c-1.593-.373-5.4-1.436-8.393-2.112a.5.5,0,0,0-.01-.449,5.736,5.736,0,0,1-.384-1.818H49.528c-.042.6-.088,1.207-.139,1.8-.605.863-1.083.943-1.375,1.513-2.173,1.314-7.036,3.463-8.6,4.845-1.646,1.451,1.3,10.135,2.15,14.123.012.055.087.092.207.116a5.162,5.162,0,0,1,.041,1.935c-.2.81-.971.98-1.529,1.268-1.5.742-2.374,1.208-1.715,1.742.044.035,5.33.232,6.483-.2a.82.82,0,0,0,.137-.517c.506,0,1.038,0,1.549-.014,0,.005,0,.01,0,.016a1.03,1.03,0,1,0,2.043-.174,2.419,2.419,0,0,0,.393-.1,1.384,1.384,0,0,0,.055-1.14c1.257-.4,2.525-.768,3.769-1.209,1.548.654,3.143,1.216,4.747,1.722a1.03,1.03,0,1,0,1.225.17.535.535,0,0,0-.161-.928c-1.4-.425-2.8-.883-4.168-1.409v-2.1h-.759v-7.6a21.665,21.665,0,0,0,6.93-1.035V51.855h.808V36.6c1.311-1.238,2.651-6.943,3.607-12.319Zm-35.148-2.5a1.575,1.575,0,0,0,.19-1.064c-.074-.474-.3-.913-.347-1.393a1.74,1.74,0,0,1,.692-1.467l.015.015a.5.5,0,0,0,.7,0l.576-.576-.033-.033a.436.436,0,0,0,.593.023l.491-.464v5.346H34.574a.3.3,0,0,0-.263.422H32.882a2.2,2.2,0,0,0-.332-.552c.054-.084.108-.169.158-.258m-1.7.81-.38-.437a1.157,1.157,0,0,1,.883.146,1.713,1.713,0,0,1,.332.29Zm-1.53-.229h-.772q.025-.066.045-.142a1.519,1.519,0,0,1,.727.142m-.3-4.883a.436.436,0,0,0,.593-.022l-.033.033.576.576a.5.5,0,0,0,.7,0l.015-.015a1.741,1.741,0,0,1,.692,1.467c-.041.456-.249.874-.334,1.321l-.034-.034a.662.662,0,0,0-.563-.248c-.716-.032-1.4-.05-2.092-.032l-.013-.033V17.019Zm-2.737,29.8a1.111,1.111,0,0,0,.424.141c-.151.8-.349,1.688-.411,2.269A2.669,2.669,0,0,1,24.9,48.146a2.889,2.889,0,0,0,.578-.191,13.4,13.4,0,0,0,.3-1.394c.007-.063-.081-.115-.232-.158.149-.875.333-2.351.507-4.032.18,1.353.327,2.586.384,3.5-.109.034-.173.072-.177.115a5.27,5.27,0,0,0,.173,1.3M12.631,44.229h-.959v1.953q-.419.135-.84.265V36.908c.616.085,1.224.161,1.8.227ZM18.26,20.1a13.257,13.257,0,0,0,.7,1.364,3.148,3.148,0,0,0,1.955,1.129h-2.7c0-.8.023-1.653.045-2.492M44.1,39.573c.578,2.309,1.243,4.622,1.579,6.2.012.055.087.092.206.116a5.152,5.152,0,0,1,.041,1.935c-.157.649-.686.887-1.177,1.1-.094-.7-.169-1.584-.236-2.407l.113-.015c-.059-.965-.347-4.257-.528-6.934m-.072-16.978A3.53,3.53,0,0,0,45.9,21.263a27.8,27.8,0,0,0,2.739-5.093s.916,2.934,1.023,2.641c.036.345.088.743.142,1.173-.054.835-.105,1.715-.161,2.611Zm8.431,23.147H51.5v1.953c-.856.275-1.718.533-2.575.806-.12-.729-.211-1.794-.289-2.768l.113-.015c-.065-1.048-.4-4.836-.572-7.6,1.35.049,2.82.075,4.282.056Z" transform="translate(0 0)" fill="#f08969"/>
  </g>
</svg>
