<svg xmlns="http://www.w3.org/2000/svg" xmlns:xlink="http://www.w3.org/1999/xlink" width="101" height="101" viewBox="0 0 101 101">
  <defs>
    <clipPath id="clip-path">
      <path id="Rectangle_2521" data-name="Rectangle 2521" d="M22.926,0H78.074A22.926,22.926,0,0,1,101,22.926V78.074A22.926,22.926,0,0,1,78.074,101H22.925A22.925,22.925,0,0,1,0,78.075V22.926A22.926,22.926,0,0,1,22.926,0Z" transform="translate(0 0.396)" fill="none"/>
    </clipPath>
    <clipPath id="clip-path-2">
      <rect id="Rectangle_2506" data-name="Rectangle 2506" width="11.381" height="6.05" fill="none"/>
    </clipPath>
    <clipPath id="clip-path-3">
      <rect id="Rectangle_2507" data-name="Rectangle 2507" width="10.64" height="8.79" fill="none"/>
    </clipPath>
    <clipPath id="clip-path-4">
      <rect id="Rectangle_2508" data-name="Rectangle 2508" width="37.467" height="57.04" fill="none"/>
    </clipPath>
    <clipPath id="clip-path-5">
      <rect id="Rectangle_2509" data-name="Rectangle 2509" width="11.925" height="47.802" fill="none"/>
    </clipPath>
    <clipPath id="clip-path-6">
      <rect id="Rectangle_2510" data-name="Rectangle 2510" width="32.572" height="19.3" fill="none"/>
    </clipPath>
    <clipPath id="clip-path-7">
      <rect id="Rectangle_2511" data-name="Rectangle 2511" width="20.958" height="21.499" fill="none"/>
    </clipPath>
    <clipPath id="clip-path-8">
      <rect id="Rectangle_2512" data-name="Rectangle 2512" width="20.472" height="11.623" fill="none"/>
    </clipPath>
    <clipPath id="clip-path-9">
      <rect id="Rectangle_2513" data-name="Rectangle 2513" width="19.357" height="20.504" fill="none"/>
    </clipPath>
    <clipPath id="clip-path-10">
      <rect id="Rectangle_2514" data-name="Rectangle 2514" width="20.917" height="15.437" fill="none"/>
    </clipPath>
    <clipPath id="clip-path-11">
      <rect id="Rectangle_2515" data-name="Rectangle 2515" width="27.191" height="23.719" fill="none"/>
    </clipPath>
    <clipPath id="clip-path-12">
      <rect id="Rectangle_2516" data-name="Rectangle 2516" width="35.107" height="33.598" fill="none"/>
    </clipPath>
    <clipPath id="clip-path-13">
      <rect id="Rectangle_2517" data-name="Rectangle 2517" width="13.304" height="19.054" fill="none"/>
    </clipPath>
    <clipPath id="clip-path-14">
      <rect id="Rectangle_2518" data-name="Rectangle 2518" width="12.385" height="7.889" fill="none"/>
    </clipPath>
    <clipPath id="clip-path-15">
      <rect id="Rectangle_2519" data-name="Rectangle 2519" width="10.195" height="16.644" fill="none"/>
    </clipPath>
    <clipPath id="clip-path-16">
      <rect id="Rectangle_2520" data-name="Rectangle 2520" width="12.785" height="11.561" fill="none"/>
    </clipPath>
  </defs>
  <g id="travel" transform="translate(0 -0.396)">
    <g id="Group_2495" data-name="Group 2495" clip-path="url(#clip-path)">
      <path id="Path_1639" data-name="Path 1639" d="M88.188,330.429s9.292-15.2,13.974-24.263c3.461-6.7,3.747-7.98,4.476-12.3,1.568-9.272,1.935-11.445,1.935-11.445l3.772,18.416a49.579,49.579,0,0,0-1.09,8.41A88.893,88.893,0,0,0,113,322.874a140.777,140.777,0,0,0,3.56,15.024c.76.47,2.907.47,4.765.33a22.342,22.342,0,0,0,5.286-1.21s.577-21.926.671-27.954c.113-7.237.139-10.075.193-14.05.087-6.325.559-15.5-.207-27.083-1.523-23.041-7.246-33.334-7.246-33.334l-26.789-2.432c-1.866,7.867-6.418,8.975-6.429,19.6,0,2.414,1.512,7.133,1.721,10.867.68,12.111,2.634,31.1,2.634,31.1-2.806,2.765-4.842,5.242-6.591,11.444-1.061,3.765-4.393,15.766-5.391,19.138,4.12.95,9.006,6.116,9.006,6.116" transform="translate(-51.86 -152.055)" fill="#375a64"/>
      <path id="Path_1640" data-name="Path 1640" d="M150.228,278.717l-.71-.074c-.435,4.2-1.243,8.991-1.789,9.393a12.678,12.678,0,0,1-5.369,1.223c-.847-.164-1.572-.78-3.1-2.635-1.075-1.3-1-2.148-.847-4,.059-.694.125-1.48.146-2.464l-.714-.015c-.02.961-.086,1.736-.144,2.42-.157,1.862-.253,2.985,1.008,4.514,1.655,2.007,2.478,2.68,3.518,2.882a2.513,2.513,0,0,0,.457.034,13.575,13.575,0,0,0,5.469-1.383c1.059-.773,1.858-7.769,2.078-9.895" transform="translate(-90.126 -182.495)" fill="#2b454e"/>
      <path id="Path_1641" data-name="Path 1641" d="M194.377,279.039l-.678.226c2.331,6.993,1.661,11.964-1.859,14.095a152.729,152.729,0,0,0-3.527-14.885l-.686.2c4.861,16.848,5.954,30.239,6.141,46.386.142,12.3.286,33.446.35,43.256.244-.047.482-.1.713-.149-.064-9.874-.207-30.878-.349-43.116a183.559,183.559,0,0,0-2.509-30.941c4.043-2.239,4.9-7.57,2.4-15.07" transform="translate(-122.885 -182.385)" fill="#2b454e"/>
      <path id="Path_1642" data-name="Path 1642" d="M102.188,284.387a4,4,0,0,0,1.6.828h.022c1.127,0,2.917-1.648,3.392-2.851a7.646,7.646,0,0,0,.354-2.16,18.8,18.8,0,0,1,.455-3.195l-.693-.169a19.661,19.661,0,0,0-.473,3.308,7.266,7.266,0,0,1-.306,1.954c-.4,1.017-1.975,2.4-2.725,2.4h-.011a5.751,5.751,0,0,1-1.839-1.3c.062.349.151.827.221,1.182" transform="translate(-66.783 -181.315)" fill="#2b454e"/>
      <path id="Path_1643" data-name="Path 1643" d="M126.648,272.79a14.168,14.168,0,0,0,.011,13.17l.643-.311a13.443,13.443,0,0,1-.036-12.5Z" transform="translate(-81.895 -178.662)" fill="#2b454e"/>
      <path id="Path_1644" data-name="Path 1644" d="M86.414,128.516c-4.123,0-8.514,1.2-13.1,8.133A78.614,78.614,0,0,0,64.9,153.36c-.929,2.746-3.2,7.531-1.248,9.364,1.9,1.784,11.643.993,15.367-2.464s5.361-18.169,5.361-18.169Z" transform="translate(-41.186 -84.171)" fill="#ffbea8"/>
      <path id="Path_1645" data-name="Path 1645" d="M214.5,88.622c3.7-1.983.163-7.925-2.686-13.537-4.623-9.1-8.931-15.793-11.486-18.625-1.311-1.453-4.515-3.334-7.086-4.481-1.324-.591-2.041-1.095-3.41-1.085-1.588.011-3.311-.141-5.423-.189a33.511,33.511,0,0,0-5.084.035,1.028,1.028,0,0,0-.711.3.683.683,0,0,0-.022.721,1.627,1.627,0,0,0,.528.54,5.632,5.632,0,0,0,1.352.707,1.349,1.349,0,0,0-.68,1.1c.035.631.7,1,1.254,1.3a.336.336,0,0,1,.168.152.418.418,0,0,1-.038.274,1.278,1.278,0,0,0,.426,1.286,3.464,3.464,0,0,0,1.268.643c1.724.576,3.866.42,5.429,1.364a13.635,13.635,0,0,1,2.046,2.011,7.324,7.324,0,0,0,2.735,1.842c2.52.821,2.831-.31,4.135,2.447,1.361,2.876,5.238,17.006,5.238,17.006Z" transform="translate(-116.91 -33.154)" fill="#ffbea8"/>
      <path id="Path_1646" data-name="Path 1646" d="M208.437,59.9c.044.242-.212.422-.429.456a2.532,2.532,0,0,1-.678.032,7.8,7.8,0,0,1-1.324-.222c-.869-.226-1.684-.563-2.523-.736a5.6,5.6,0,0,0-1.244-.132,2.154,2.154,0,0,0-.577.071.861.861,0,0,0-.412.247c-.184.192-.111.494.123.807a4.288,4.288,0,0,0,.9.811,8.994,8.994,0,0,0,2.356.941,4.74,4.74,0,0,1,1.282.565,2.836,2.836,0,0,1,.9,1.117c.21.422.317.863.48,1.245a4.007,4.007,0,0,0,.65,1.079,5.636,5.636,0,0,0,2.133,1.444,5.306,5.306,0,0,1-2.364-1.23,4.181,4.181,0,0,1-.79-1.122c-.21-.416-.337-.832-.543-1.19a2.421,2.421,0,0,0-.783-.882,4.089,4.089,0,0,0-1.145-.453,8.592,8.592,0,0,1-2.544-.975,4.526,4.526,0,0,1-1.045-.967,1.767,1.767,0,0,1-.331-.735,1.037,1.037,0,0,1,.259-.867,1.861,1.861,0,0,1,1.448-.477,5.068,5.068,0,0,1,1.369.21c.877.241,1.678.63,2.5.91a8.523,8.523,0,0,0,1.25.361,2.407,2.407,0,0,0,.639.047c.2-.007.443-.108.446-.353" transform="translate(-131.326 -38.464)" fill="#ff9b79"/>
      <path id="Path_1647" data-name="Path 1647" d="M154.675,41.653a4.124,4.124,0,0,0,.254-4.1c-.566-1.3-1.694-2.646-4.9-4.151-3.8-1.788-14.111-2.768-18.928,4.133-.694,1,10.123,19.576,9.774,23.53,2.511-2.852,10.781-12.858,10.781-12.858,2.013-.949,3.223-1.736,3.581-3.683a4.76,4.76,0,0,0-.566-2.875" transform="translate(-85.845 -21.025)" fill="#1a2e35"/>
      <path id="Path_1648" data-name="Path 1648" d="M195.615,75.5s2.935,4.411,2.644,4.791a14.2,14.2,0,0,1-2,1.432Z" transform="translate(-128.117 -49.45)" fill="#ff9b79"/>
      <path id="Path_1649" data-name="Path 1649" d="M148.7,49.928c1.887.805,3.55,2.166,4.281,6.214.191,1.058-.583,2.544-.153,3.945,1.846,6,.123,11.121-1.013,12.281-.767.782-4.915,1.276-7.121.751-2.76-.657-8.8-3.11-11.789-7.271-3.521-4.9-4.557-11.62-.953-14.473,5.071-4.015,14.733-2.306,16.748-1.447" transform="translate(-84.949 -31.975)" fill="#ffbea8"/>
      <path id="Path_1650" data-name="Path 1650" d="M141.074,107.89l-.656,7.244c-1.63.509-1.346,2.805-.382,4.221l-.193,2.132,10.66.963,1.6-12.241Z" transform="translate(-91.203 -70.662)" fill="#ffbea8"/>
      <path id="Path_1651" data-name="Path 1651" d="M181.8,116.113c-.948.574-3.067,1.052-5.981.759l.179-1.5a15.59,15.59,0,0,0,2.795.719,10.171,10.171,0,0,0,3.007.025" transform="translate(-115.155 -75.559)" fill="#ff9b79"/>
      <path id="Path_1652" data-name="Path 1652" d="M144.4,48.214a3.815,3.815,0,0,1-2.579,4.094,5.675,5.675,0,0,1,.6,3.091,3.317,3.317,0,0,1-1.979,2.955c-.8.3-1.046-.045-1.358-.669-.443-.887-1.008-2.254-2.938-1.913-2.212.391-2.671,3.761-1.291,5.9a3.262,3.262,0,0,0,2.571,1.591,2.035,2.035,0,0,0,1.486-.772s-.035,2.93-3.727,4.8a11.056,11.056,0,0,1-7.644,1.28,74.173,74.173,0,0,1-5.179-5.9c-4.329-5.768-5.561-16.588,1.354-18.8.33-.105,6.624-1.231,9.735-.68C143,44.89,144.366,47.757,144.4,48.214" transform="translate(-77.825 -28.194)" fill="#1a2e35"/>
      <path id="Path_1653" data-name="Path 1653" d="M74.185,59.482a9.649,9.649,0,0,1-4.211,8.349,8.1,8.1,0,0,1-5.534,1.236c-2.1-.306-4.114-1.138-6.253-1.2-4.387-.119-8.352,3.2-12.733,2.944a10.208,10.208,0,0,1-6.263-2.955c-1.433-1.358-2.612-3.052-4.36-3.97-1.786-.938-3.9-.927-5.865-1.376a12.68,12.68,0,0,1-6.769-4.1A8.584,8.584,0,0,1,20,53.439a5.079,5.079,0,0,1,2.52-4.511c1.349-.836,3.4-1.139,4.741-1.985,1.5-.946,1.7-2.717,3.031-3.892a8.433,8.433,0,0,1,4.788-1.822,15.453,15.453,0,0,1,6.685.808c2.426.861,4.78,2.354,7.344,2.124,2.394-.215,4.383-1.766,6.192-3.2,2.454-1.939,4.632-2.728,6.435-2.475.1.014-.235,19.913,5.833,22.184,6.087,2.279,6.617-1.194,6.617-1.194" transform="translate(-13.093 -25.18)" fill="#1a2e35"/>
      <path id="Path_1654" data-name="Path 1654" d="M105.667,133.762c1.228-3.343,9.19-5.434,8.7-5.473,1.094.086,2.382.206,2.382.206-.659,1.319.293,2.257,2.017,2.754,2.226.64,5.646.877,8.056-.552l.744-.478a55.641,55.641,0,0,1,6.191,1.236c3.767,1.419,4.705,2.705,8.611,12.839,1.67,4.333.639,8.826-3.857,11.278-.334,2.677-.714,6.9-.714,6.9a153.15,153.15,0,0,1,2.724,17.417s-2.371,5.378-18.781,4.473c-12.71-.7-18.626-7.132-18.626-7.132.313-3.121,2.286-8.1,6.332-17.5-4.784-13.506-5.532-21.183-3.775-25.966" transform="translate(-67.531 -84.022)" fill="#f08969"/>
      <path id="Path_1655" data-name="Path 1655" d="M121.026,128.332s-5.316,2.355-6.391,5.759l-4.99-.627s3.426-4.1,7.648-5.337c2.819-.278,3.734.205,3.734.205" transform="translate(-71.811 -83.859)" fill="#3c8275"/>
      <g id="Group_2452" data-name="Group 2452" transform="translate(37.834 44.181)" opacity="0.35">
        <g id="Group_2451" data-name="Group 2451">
          <g id="Group_2450" data-name="Group 2450" clip-path="url(#clip-path-2)">
            <path id="Path_1656" data-name="Path 1656" d="M121.026,128.332s-5.316,2.355-6.391,5.759l-4.99-.627s3.426-4.1,7.648-5.337a8.189,8.189,0,0,1,3.734.205" transform="translate(-109.645 -128.04)" fill="#3c8275"/>
          </g>
        </g>
      </g>
      <path id="Path_1657" data-name="Path 1657" d="M166.25,142.979s2.377-6.83,5.473-7.661a22.373,22.373,0,0,0-5.875-1.129,14.807,14.807,0,0,0-4.765,5.84Z" transform="translate(-105.499 -87.886)" fill="#3c8275"/>
      <g id="Group_2455" data-name="Group 2455" transform="translate(55.583 46.303)" opacity="0.35">
        <g id="Group_2454" data-name="Group 2454">
          <g id="Group_2453" data-name="Group 2453" clip-path="url(#clip-path-3)">
            <path id="Path_1658" data-name="Path 1658" d="M166.25,142.979s2.377-6.83,5.473-7.661a22.373,22.373,0,0,0-5.875-1.129,14.807,14.807,0,0,0-4.765,5.84Z" transform="translate(-161.082 -134.189)" fill="#3c8275"/>
          </g>
        </g>
      </g>
      <path id="Path_1659" data-name="Path 1659" d="M93.553,133.728c-3.038-.227-7.724,2.793-8.846,5.091-1.177,2.411-5.986,35.7-3.471,38.985,3.156,4.122,18.962,12.759,25.974,12.947a11.655,11.655,0,0,0,10.042-5.225c1.5-2.443.5-37.051-1.261-40.064-2.862-4.884-18.566-11.444-22.437-11.734" transform="translate(-52.735 -87.576)" fill="#67b6a8"/>
      <g id="Group_2458" data-name="Group 2458" transform="translate(27.784 46.14)" opacity="0.2">
        <g id="Group_2457" data-name="Group 2457">
          <g id="Group_2456" data-name="Group 2456" clip-path="url(#clip-path-4)">
            <path id="Path_1660" data-name="Path 1660" d="M93.553,133.728c-3.038-.227-7.724,2.793-8.846,5.091-1.177,2.411-5.986,35.7-3.471,38.985,3.156,4.122,18.962,12.759,25.974,12.947a11.655,11.655,0,0,0,10.042-5.225c1.5-2.443.5-37.051-1.261-40.064-2.862-4.884-18.566-11.444-22.437-11.734" transform="translate(-80.519 -133.716)" fill="#fff"/>
          </g>
        </g>
      </g>
      <g id="Group_2461" data-name="Group 2461" transform="translate(53.326 54.919)" opacity="0.1">
        <g id="Group_2460" data-name="Group 2460">
          <g id="Group_2459" data-name="Group 2459" clip-path="url(#clip-path-5)">
            <path id="Path_1661" data-name="Path 1661" d="M166.239,179.751c-.056-1.45-.121-2.883-.195-4.269q-.044-.832-.093-1.639c-.065-1.075-.135-2.112-.209-3.1q-.056-.738-.116-1.434c-.06-.695-.122-1.356-.187-1.975s-.132-1.2-.2-1.729q-.035-.266-.07-.515a10.446,10.446,0,0,0-.695-2.969c-.081-.138-.175-.278-.276-.418-.033-.046-.069-.092-.1-.139q-.108-.142-.228-.286c-.047-.056-.094-.111-.144-.167-.079-.089-.164-.179-.249-.269-.055-.057-.106-.114-.163-.171q-.193-.194-.4-.389c-.091-.083-.188-.168-.284-.252-.064-.056-.128-.112-.194-.168q-.161-.137-.331-.274l-.168-.135c-.126-.1-.253-.2-.384-.3a11.057,11.057,0,0,1-3.155.863c-.167.1-2.982,1.6-2.947,5.845l-.386,17.141-.041,1.629c-.014,2.274-2.47,23.131,3.993,22.3.084-.011.172-.019.257-.029,4.361-1.277,5.747-3.539,6.472-4.717a3.555,3.555,0,0,0,.307-1.131c.035-.222.068-.469.1-.742q.023-.2.044-.427c.042-.445.08-.943.112-1.487q.016-.272.031-.56c.147-2.874.174-6.859.1-11.132-.014-.855-.032-1.721-.053-2.592q-.022-.871-.048-1.747-.013-.437-.028-.875-.028-.875-.062-1.746" transform="translate(-154.542 -159.158)"/>
          </g>
        </g>
      </g>
      <g id="Group_2464" data-name="Group 2464" transform="translate(31.215 46.14)" opacity="0.4">
        <g id="Group_2463" data-name="Group 2463">
          <g id="Group_2462" data-name="Group 2462" clip-path="url(#clip-path-6)">
            <path id="Path_1662" data-name="Path 1662" d="M123.034,147.4a6.957,6.957,0,0,0-.531-1.938c-2.862-4.883-18.567-11.444-22.438-11.734-3.038-.227-7.724,2.793-8.846,5.091a17.908,17.908,0,0,0-.758,3.042c6,3.569,21.515,11.625,23.141,11.134,2-.6,9.251-5.319,9.429-5.587Z" transform="translate(-90.462 -133.716)"/>
          </g>
        </g>
      </g>
      <path id="Path_1663" data-name="Path 1663" d="M103.795,230.046c-3.188-1.69-10.264-6.167-12.232-7.2a2.192,2.192,0,0,0-2.206-.128c-.288.181-1.287.824-1.547.972a1.4,1.4,0,0,0-.707,1.187c-.127,3.622-.242,5.112-.123,6.864a4.354,4.354,0,0,0,2,3.632c1.727,1.361,9.2,5.812,11.42,7.014,2.088,1.132,4.321,2.009,5.244,1.383.24-.162,1.326-.807,1.61-1a1.111,1.111,0,0,0,.435-.99c.009-1.855.155-5.809.195-7.155.05-1.666-.729-2.8-4.09-4.582" transform="translate(-56.934 -145.713)" fill="#67b6a8"/>
      <g id="Group_2467" data-name="Group 2467" transform="translate(29.996 76.769)" opacity="0.3">
        <g id="Group_2466" data-name="Group 2466">
          <g id="Group_2465" data-name="Group 2465" clip-path="url(#clip-path-7)">
            <path id="Path_1664" data-name="Path 1664" d="M103.795,230.046c-3.188-1.69-10.264-6.167-12.232-7.2a2.192,2.192,0,0,0-2.206-.128c-.288.181-1.287.824-1.547.972a1.4,1.4,0,0,0-.707,1.187c-.127,3.622-.242,5.112-.123,6.864a4.354,4.354,0,0,0,2,3.632c1.727,1.361,9.2,5.812,11.42,7.014,2.088,1.132,4.321,2.009,5.244,1.383.24-.162,1.326-.807,1.61-1a1.111,1.111,0,0,0,.435-.99c.009-1.855.155-5.809.195-7.155.05-1.666-.729-2.8-4.09-4.582" transform="translate(-86.93 -222.483)" fill="#67b6a8"/>
          </g>
        </g>
      </g>
      <g id="Group_2470" data-name="Group 2470" transform="translate(30.226 76.769)" opacity="0.4">
        <g id="Group_2469" data-name="Group 2469">
          <g id="Group_2468" data-name="Group 2468" clip-path="url(#clip-path-8)">
            <path id="Path_1665" data-name="Path 1665" d="M106.432,234.106l1.638-.927c-.442-.993-1.532-1.91-3.837-3.132-3.188-1.69-10.264-6.167-12.232-7.2a2.192,2.192,0,0,0-2.206-.128c-.289.181-1.287.824-1.548.972a1.379,1.379,0,0,0-.649.825Z" transform="translate(-87.598 -222.483)" fill="#67b6a8"/>
          </g>
        </g>
      </g>
      <path id="Path_1666" data-name="Path 1666" d="M87.1,226.78c-.127,3.622-.242,5.112-.124,6.864a4.355,4.355,0,0,0,2,3.632c1.727,1.361,9.2,5.813,11.42,7.015,2.712,1.471,5.678,2.52,5.689.4.01-1.855.155-5.809.195-7.155.05-1.666-.729-2.8-4.09-4.582-3.188-1.69-10.264-6.167-12.232-7.2-1.662-.871-2.822-.055-2.86,1.029" transform="translate(-56.934 -147.614)" fill="#67b6a8"/>
      <g id="Group_2473" data-name="Group 2473" transform="translate(29.996 77.771)" opacity="0.18">
        <g id="Group_2472" data-name="Group 2472">
          <g id="Group_2471" data-name="Group 2471" clip-path="url(#clip-path-9)">
            <path id="Path_1667" data-name="Path 1667" d="M87.1,226.78c-.127,3.622-.242,5.112-.124,6.864a4.355,4.355,0,0,0,2,3.632c1.727,1.361,9.2,5.813,11.42,7.015,2.712,1.471,5.678,2.52,5.689.4.01-1.855.155-5.809.195-7.155.05-1.666-.729-2.8-4.09-4.582-3.188-1.69-10.264-6.167-12.232-7.2-1.662-.871-2.822-.055-2.86,1.029" transform="translate(-86.93 -225.385)" fill="#67b6a8"/>
          </g>
        </g>
      </g>
      <path id="Path_1668" data-name="Path 1668" d="M107.23,232.58c-.356-.958-1.922-.328-2.252.927s-.266,2.933-.428,3.477-17.65-9.663-18.137-10.242c-.225-.267-.063-3.315.552-3.857S89,221.393,89.957,221.6s11.572,6.475,13.643,7.577,3.709,2.223,3.631,3.407" transform="translate(-56.532 -145.114)" fill="#67b6a8"/>
      <g id="Group_2476" data-name="Group 2476" transform="translate(29.784 76.454)" opacity="0.19">
        <g id="Group_2475" data-name="Group 2475">
          <g id="Group_2474" data-name="Group 2474" clip-path="url(#clip-path-10)">
            <path id="Path_1669" data-name="Path 1669" d="M107.23,232.58c-.356-.958-1.922-.328-2.252.927s-.266,2.933-.428,3.477-17.65-9.663-18.137-10.242c-.225-.267-.063-3.315.552-3.857S89,221.393,89.957,221.6s11.572,6.475,13.643,7.577,3.709,2.223,3.631,3.407" transform="translate(-86.317 -221.568)" fill="#1a2e35"/>
          </g>
        </g>
      </g>
      <path id="Path_1670" data-name="Path 1670" d="M86.649,225.334c-.527.418-.765,2.3-.815,3.918s5.642,7.424,7.521,8.325,10.9,3.036,11,1.989.075-3.433.51-4.1c.1-.158-6.105-3.342-9.715-5.227s-8.051-5.267-8.5-4.908" transform="translate(-56.216 -147.563)" fill="#589387"/>
      <path id="Path_1671" data-name="Path 1671" d="M108.189,250.765a1.519,1.519,0,0,1,.728,1.35.57.57,0,0,1-.877.518,1.482,1.482,0,0,1-.728-1.35c.042-.523.434-.755.877-.518" transform="translate(-70.281 -164.176)" fill="#375a64"/>
      <g id="Group_2479" data-name="Group 2479" transform="translate(28.949 61.627)" opacity="0.15">
        <g id="Group_2478" data-name="Group 2478">
          <g id="Group_2477" data-name="Group 2477" clip-path="url(#clip-path-11)">
            <path id="Path_1672" data-name="Path 1672" d="M83.895,186.591c.311-2.631.483-4.428.849-6.631.834-.606,2-1.362,2-1.362l7.485,2.6,7,2.433,1.591.552c.5.173,1,.483,1.5.616,1.275.344,3.123-.678,4.063-1.406a6.374,6.374,0,0,1,2.709-1.678q-.135,3.59-.325,7.176a25.487,25.487,0,0,1-.777,6.662,3.328,3.328,0,0,1-2.351,2.233,10.07,10.07,0,0,1-4.047-.038s-.125,2.016-.316,3.013a2.877,2.877,0,0,1-1.739,1.552c-1.178-.307-1.369-5.776-1.369-5.776l-8.942-4.761a9.154,9.154,0,0,1-.181,2.287c-.465.76-1.376,1.594-1.721,1.507-1.487-.377-1.363-5.624-1.363-5.624a14.425,14.425,0,0,1-4.062-3.355" transform="translate(-83.895 -178.598)"/>
          </g>
        </g>
      </g>
      <path id="Path_1673" data-name="Path 1673" d="M95.025,133.666a10.792,10.792,0,0,0-8.822,4.268c-1.765,2.517-3.786,15.2-2.605,17.52,1.163,2.283,10.4,7.654,15.978,10.3,4.457,2.114,6.729,1.619,8.453.748,1.3-.656,1.27-2.8,1.39-4.393.307-4.093.636-11.437,3.183-13.692s5-2.914,5.7-1.051c0,0,.808-2.687-4.248-5.641-8.381-4.9-14.925-7.8-19.032-8.058" transform="translate(-54.52 -87.534)" fill="#67b6a8"/>
      <g id="Group_2482" data-name="Group 2482" transform="translate(28.724 46.117)" opacity="0.1">
        <g id="Group_2481" data-name="Group 2481">
          <g id="Group_2480" data-name="Group 2480" clip-path="url(#clip-path-12)">
            <path id="Path_1674" data-name="Path 1674" d="M95.025,133.666a10.792,10.792,0,0,0-8.822,4.268c-1.765,2.517-3.786,15.2-2.605,17.52,1.163,2.283,10.4,7.654,15.978,10.3,4.457,2.114,6.729,1.619,8.453.748,1.3-.656,1.27-2.8,1.39-4.393.307-4.093.636-11.437,3.183-13.692s5-2.914,5.7-1.051c0,0,.808-2.687-4.248-5.641-8.381-4.9-14.925-7.8-19.032-8.058" transform="translate(-83.244 -133.651)"/>
          </g>
        </g>
      </g>
      <path id="Path_1675" data-name="Path 1675" d="M85.745,148.565c-1.631,3.757-3.228,14.536-2.148,16.657,1.163,2.283,10.4,7.654,15.978,10.3,4.457,2.115,6.729,1.619,8.453.748,1.3-.656,1.27-2.8,1.39-4.393.226-3.006.467-7.76,1.586-10.969-5.337-2.6-19.49-9.5-25.258-12.342" transform="translate(-54.52 -97.302)" fill="#67b6a8"/>
      <path id="Path_1676" data-name="Path 1676" d="M130.363,199.43l2.945,1.314s-.916,9.65-1,13.192c0,0-.735,1.482-1.391,1.692s-1.457-1.55-1.564-2.839.615-10.311,1.013-13.359" transform="translate(-84.71 -130.615)" fill="#375a64"/>
      <path id="Path_1677" data-name="Path 1677" d="M131.084,196.177l3,1.235a.5.5,0,0,0,.73-.423l.156-1.454a.834.834,0,0,0-.477-.8l-3.012-1.281a.487.487,0,0,0-.72.414l-.156,1.519a.825.825,0,0,0,.481.792" transform="translate(-85.536 -126.665)" fill="#2b454e"/>
      <path id="Path_1678" data-name="Path 1678" d="M132.073,233.887a1.524,1.524,0,0,1,.8,1.313.57.57,0,0,1-.847.563,1.486,1.486,0,0,1-.8-1.313c.014-.526.394-.778.847-.563" transform="translate(-85.945 -153.133)" fill="#e1e1e1"/>
      <path id="Path_1679" data-name="Path 1679" d="M95.294,180.134l2.878,1.462s-.831,9.564-1.1,13.09c0,0-.812,1.44-1.479,1.615s-1.377-1.621-1.418-2.911a130.322,130.322,0,0,1,1.12-13.256" transform="translate(-61.678 -117.977)" fill="#375a64"/>
      <path id="Path_1680" data-name="Path 1680" d="M96.167,176.888l2.935,1.386a.5.5,0,0,0,.752-.384l.232-1.442a.833.833,0,0,0-.436-.823L96.7,174.192a.488.488,0,0,0-.742.376l-.234,1.506a.822.822,0,0,0,.44.815" transform="translate(-62.691 -114.042)" fill="#2b454e"/>
      <path id="Path_1681" data-name="Path 1681" d="M97.034,214.5a1.519,1.519,0,0,1,.728,1.35.57.57,0,0,1-.877.518,1.482,1.482,0,0,1-.728-1.35c.042-.523.434-.755.877-.518" transform="translate(-62.975 -140.423)" fill="#e1e1e1"/>
      <path id="Path_1682" data-name="Path 1682" d="M172.024,236.686c-.18-.1-2.8-2.237-3.109-2.41-.539-.305-8.534,4.6-9.281,5.469-.519.6.09,10.381.387,11.092.107.256,3,2.156,3.109,2.41.3.711,8.734-4.262,9.278-5.546s.408-10.567-.384-11.015" transform="translate(-104.419 -153.428)" fill="#67b6a8"/>
      <g id="Group_2485" data-name="Group 2485" transform="translate(55.013 80.834)" opacity="0.18">
        <g id="Group_2484" data-name="Group 2484">
          <g id="Group_2483" data-name="Group 2483" clip-path="url(#clip-path-13)">
            <path id="Path_1683" data-name="Path 1683" d="M172.024,236.686c-.18-.1-2.8-2.237-3.109-2.41-.539-.305-8.534,4.6-9.281,5.469-.519.6.09,10.381.387,11.092.107.256,3,2.156,3.109,2.41.3.711,8.734-4.262,9.278-5.546s.408-10.567-.384-11.015" transform="translate(-159.432 -234.263)" fill="#67b6a8"/>
          </g>
        </g>
      </g>
      <path id="Path_1684" data-name="Path 1684" d="M168.645,246.729c-.52.6.09,10.381.387,11.092s8.734-4.262,9.278-5.546.408-10.567-.384-11.015c-.539-.305-8.533,4.6-9.28,5.469" transform="translate(-110.32 -158.003)" fill="#67b6a8"/>
      <g id="Group_2488" data-name="Group 2488" transform="translate(55.217 80.836)" opacity="0.4">
        <g id="Group_2487" data-name="Group 2487">
          <g id="Group_2486" data-name="Group 2486" clip-path="url(#clip-path-14)">
            <path id="Path_1685" data-name="Path 1685" d="M169.3,234.281c.3.169,2.925,2.308,3.1,2.407-.535-.3-8.531,4.605-9.276,5.468l-3.109-2.407c.745-.869,8.741-5.777,9.282-5.468" transform="translate(-160.022 -234.267)" fill="#67b6a8"/>
          </g>
        </g>
      </g>
      <g id="Group_2491" data-name="Group 2491" transform="translate(58.122 83.244)" opacity="0.3">
        <g id="Group_2490" data-name="Group 2490">
          <g id="Group_2489" data-name="Group 2489" clip-path="url(#clip-path-15)">
            <path id="Path_1686" data-name="Path 1686" d="M168.645,246.729c-.52.6.09,10.381.387,11.092s8.734-4.262,9.278-5.546.408-10.567-.384-11.015c-.539-.305-8.533,4.6-9.28,5.469" transform="translate(-168.442 -241.247)" fill="#67b6a8"/>
          </g>
        </g>
      </g>
      <path id="Path_1687" data-name="Path 1687" d="M160.022,239.273c.593-.351,2.334.676,3.082,1.366s1.516,3.787,3.466,4.373,4.76-1.854,5.369-3.48,1.359-5.07.432-6.361a3.3,3.3,0,0,0-3.97-1.38c-1.4.675-8.184,3.966-8.379,5.482" transform="translate(-104.805 -152.955)" fill="#67b6a8"/>
      <g id="Group_2494" data-name="Group 2494" transform="translate(55.217 80.585)" opacity="0.2">
        <g id="Group_2493" data-name="Group 2493">
          <g id="Group_2492" data-name="Group 2492" clip-path="url(#clip-path-16)">
            <path id="Path_1688" data-name="Path 1688" d="M160.022,239.273c.593-.351,2.334.676,3.082,1.366s1.516,3.787,3.466,4.373,4.76-1.854,5.369-3.48,1.359-5.07.432-6.361a3.3,3.3,0,0,0-3.97-1.38c-1.4.675-8.184,3.966-8.379,5.482" transform="translate(-160.022 -233.54)"/>
          </g>
        </g>
      </g>
      <path id="Path_1689" data-name="Path 1689" d="M184.166,255.253a1.4,1.4,0,0,0-.7,1.313.606.606,0,0,0,.887.563,1.37,1.37,0,0,0,.7-1.313c-.051-.525-.448-.777-.887-.563" transform="translate(-120.154 -167.126)" fill="#2b454e"/>
      <path id="Path_1690" data-name="Path 1690" d="M188.7,136.776c2.959-.055,4.069.669,6.263,1.1,3,.589,14.419-1.707,14.419-1.707s4.623-.172,7.619,1.216c3.371,1.562,4.239,3.29,4.164,4.661-.1,1.926-1.5,2.995-5.061,4.263-2.8,1-16.466,4.739-21.491,5.367-7.329.916-10.97-11-5.914-14.9" transform="translate(-122.053 -89.179)" fill="#ffbea8"/>
      <path id="Path_1691" data-name="Path 1691" d="M245.706,134.532c3.88-.435,7.42-.738,10.076,1.475-.885-2.1-3.428-3.541-10.455-2.822Z" transform="translate(-160.675 -87.106)" fill="#ff9b79"/>
    </g>
  </g>
</svg>
